0
SECTION
2
HEADER
9
$INSUNITS
70
4
9
$ACADVER
1
AC1014
9
$HANDSEED
5
FFFF
0
ENDSEC
0
SECTION
2
TABLES
0
TABLE
2
VPORT
5
8
100
AcDbSymbolTable
0
ENDTAB
0
TABLE
2
LTYPE
5
5
100
AcDbSymbolTable
0
LTYPE
5
14
100
AcDbSymbolTableRecord
100
AcDbLinetypeTableRecord
2
BYBLOCK
70
0
0
LTYPE
5
15
100
AcDbSymbolTableRecord
100
AcDbLinetypeTableRecord
2
BYLAYER
70
0
0
ENDTAB
0
TABLE
2
LAYER
5
2
100
AcDbSymbolTable
70
2
0
LAYER
5
50
100
AcDbSymbolTableRecord
100
AcDbLayerTableRecord
2
0
70
0
6
CONTINUOUS
0
ENDTAB
0
TABLE
2
STYLE
5
3
100
AcDbSymbolTable
70
1
0
STYLE
5
11
100
AcDbSymbolTableRecord
100
AcDbTextStyleTableRecord
2
STANDARD
70
0
0
ENDTAB
0
TABLE
2
VIEW
5
6
100
AcDbSymbolTable
70
0
0
ENDTAB
0
TABLE
2
UCS
5
7
100
AcDbSymbolTable
70
0
0
ENDTAB
0
TABLE
2
APPID
5
9
100
AcDbSymbolTable
70
2
0
APPID
5
12
100
AcDbSymbolTableRecord
100
AcDbRegAppTableRecord
2
ACAD
70
0
0
ENDTAB
0
TABLE
2
DIMSTYLE
5
A
100
AcDbSymbolTable
70
1
0
ENDTAB
0
TABLE
2
BLOCK_RECORD
5
1
100
AcDbSymbolTable
70
1
0
BLOCK_RECORD
5
1F
100
AcDbSymbolTableRecord
100
AcDbBlockTableRecord
2
*MODEL_SPACE
0
BLOCK_RECORD
5
1B
100
AcDbSymbolTableRecord
100
AcDbBlockTableRecord
2
*PAPER_SPACE
0
ENDTAB
0
ENDSEC
0
SECTION
2
BLOCKS
0
BLOCK
5
20
100
AcDbEntity
100
AcDbBlockBegin
2
*MODEL_SPACE
0
ENDBLK
5
21
100
AcDbEntity
100
AcDbBlockEnd
0
BLOCK
5
1C
100
AcDbEntity
100
AcDbBlockBegin
2
*PAPER_SPACE
0
ENDBLK
5
1D
100
AcDbEntity
100
AcDbBlockEnd
0
ENDSEC
0
SECTION
2
ENTITIES
0
ARC
5
100
100
AcDbEntity
8
0
100
AcDbCircle
10
1829.6871675186787
20
1354.6058591157757
30
0
40
0.99999999999965894
210
0
220
0
230
1
100
AcDbArc
50
180
51
270
0
ARC
5
101
100
AcDbEntity
8
0
100
AcDbCircle
10
1829.6871675186787
20
1366.6058591157771
30
0
40
0.99999999999965894
210
0
220
-0
230
1
100
AcDbArc
50
89.999999999986969
51
180
0
ARC
5
102
100
AcDbEntity
8
0
100
AcDbCircle
10
1859.3462409562148
20
1368.6058530122436
30
0
40
1.0000000000351861
210
0
220
0
230
1
100
AcDbArc
50
90.000000000898908
51
180
0
ARC
5
103
100
AcDbEntity
8
0
100
AcDbCircle
10
1883.2222175186801
20
1368.6058530122612
30
0
40
1.0000000000007958
210
0
220
0
230
1
100
AcDbArc
50
90.00000000003908
51
180
0
ARC
5
104
100
AcDbEntity
8
0
100
AcDbCircle
10
1869.1087409561735
20
1368.6058530122498
30
0
40
1.0000000000292175
210
0
220
-0
230
1
100
AcDbArc
50
0
51
89.999999998540915
0
ARC
5
105
100
AcDbEntity
8
0
100
AcDbCircle
10
1892.9847175186799
20
1368.6058530122627
30
0
40
0.99999999999880629
210
0
220
0
230
1
100
AcDbArc
50
0
51
90.000000000026063
0
ARC
5
106
100
AcDbEntity
8
0
100
AcDbCircle
10
1892.9847175186776
20
1354.6058530122623
30
0
40
1.00000000000108
210
0
220
0
230
1
100
AcDbArc
50
270.00000000010419
51
360
0
ARC
5
107
100
AcDbEntity
8
0
100
AcDbCircle
10
1953.5092372208128
20
1373.6558774263249
30
0
40
1.0000000000002274
210
0
220
0
230
1
100
AcDbArc
50
180
51
270.00000000002603
0
ARC
5
108
100
AcDbEntity
8
0
100
AcDbCircle
10
1975.0341792374295
20
1385.6558530122618
30
0
40
0.99999999999994316
210
0
220
0
230
1
100
AcDbArc
50
0
51
90.000000000013031
0
ARC
5
109
100
AcDbEntity
8
0
100
AcDbCircle
10
1953.5092372208112
20
1385.6558774263251
30
0
40
0.99999999999965894
210
0
220
-0
230
1
100
AcDbArc
50
89.99999999996092
51
180
0
ARC
5
110
100
AcDbEntity
8
0
100
AcDbCircle
10
1975.0341792374293
20
1373.6558530122611
30
0
40
1.0000000000002274
210
0
220
0
230
1
100
AcDbArc
50
270
51
360
0
ARC
5
111
100
AcDbEntity
8
0
100
AcDbCircle
10
1959.5961909561784
20
1371.6558530122616
30
0
40
1.0000000000002274
210
0
220
0
230
1
100
AcDbArc
50
270.00000000003905
51
360
0
ARC
5
112
100
AcDbEntity
8
0
100
AcDbCircle
10
1954.5961909561788
20
1371.6558530122595
30
0
40
0.99999999999795364
210
0
220
0
230
1
100
AcDbArc
50
180
51
270.00000000006514
0
LWPOLYLINE
5
113
100
AcDbEntity
8
0
100
AcDbPolyline
90
15
70
1
43
0.0
10
1992.7029872208268
20
1373.6558774263253
42
-0.41421356237309503
10
1991.7029872208266
20
1372.6558774263251
10
1984.4721675186804
20
1372.6558774263251
10
1984.4721675186806
20
1371.6558530122606
42
-0.41421356238125306
10
1983.4721675186563
20
1370.6558530122402
10
1978.4721675186563
20
1370.6558530122402
42
-0.41421356236701812
10
1977.4721675186559
20
1371.6558530122602
10
1977.4721675186561
20
1372.6481023090207
10
1977.4721373868147
20
1372.6558652192923
10
1977.4721373868149
20
1385.6558652192925
42
-0.41276675266331891
10
1978.4671951640214
20
1386.6558530122609
10
1979.6959995507198
20
1386.6558530122606
10
1979.702987220827
20
1386.6558774263253
10
1991.7029872208266
20
1386.6558774263251
42
-0.41421356237334478
10
1992.7029872208266
20
1385.6558774263253
0
LWPOLYLINE
5
114
100
AcDbEntity
8
0
100
AcDbPolyline
90
15
70
1
43
0.0
10
1821.5471675186795
20
1369.6058530122618
42
-0.414213562373761
10
1822.5471675186791
20
1368.6058530122614
10
1822.5471675186793
20
1354.6058530122618
42
-0.41421356237242907
10
1821.5471675186795
20
1353.6058530122612
10
1787.9086909561793
20
1353.6058530122614
42
-0.41421356237309503
10
1786.9086909561788
20
1354.6058530122618
10
1786.9086909561795
20
1368.6058530122616
42
-0.41421356236327211
10
1787.9086909561993
20
1369.6058530122791
10
1797.6711909561991
20
1369.6058530122791
42
-0.41421356236210666
10
1798.6711909562027
20
1368.6058530122618
10
1798.671190956203
20
1367.6136037155015
10
1798.6712210406629
20
1367.6058530122618
10
1810.7846675186802
20
1367.6058530122614
10
1810.7846675186795
20
1368.6058530122614
42
-0.4142135623731783
10
1811.7846675186797
20
1369.6058530122618
0
LWPOLYLINE
5
115
100
AcDbEntity
8
0
100
AcDbPolyline
90
18
70
1
43
0.0
10
1917.8867311173121
20
1367.6058591594872
42
-0.41421356237334478
10
1918.8867311173124
20
1366.6058591594874
10
1918.8867311173124
20
1354.6058591157762
42
-0.41421354956997414
10
1917.8867311173119
20
1353.6058591594872
10
1912.0079460656852
20
1353.6058591594874
10
1912.0029961832311
20
1353.6058469087445
10
1907.0029961832279
20
1353.6058469087445
10
1906.9980463007732
20
1353.6058591594874
10
1905.8867310298897
20
1353.6058591594874
42
-0.41421353676768585
10
1904.8867311173121
20
1354.6058591594874
10
1904.8867311173124
20
1366.6058591594874
42
-0.4142135623731783
10
1905.8867311173119
20
1367.6058591594872
10
1906.0029961832277
20
1367.6058591594874
10
1906.0029961832279
20
1368.6058591157778
42
-0.41421356237334478
10
1907.0029961832281
20
1369.6058591157775
10
1912.0029961832277
20
1369.6058591157775
42
-0.4142135623731783
10
1913.0029961832279
20
1368.6058591157778
10
1913.0029961832281
20
1367.6058591594874
0
LWPOLYLINE
5
116
100
AcDbEntity
8
0
100
AcDbPolyline
90
8
70
1
43
0.0
10
1715.3841853409449
20
1391.7058469087456
42
-0.41421357517621599
10
1714.3841853409447
20
1392.7058469524573
10
1714.3841853409447
20
1404.7058469087458
42
-0.41421356237334478
10
1715.3841853409449
20
1405.7058469087456
10
1732.1492292374296
20
1405.7058469087456
42
-0.41421354957039042
10
1733.1492291500072
20
1404.7058468650346
10
1733.1492291500069
20
1392.7058469087458
42
-0.41421353676785233
10
1732.1492292374296
20
1391.7058469087456
0
LWPOLYLINE
5
117
100
AcDbEntity
8
0
100
AcDbPolyline
90
8
70
1
43
0.0
10
1942.6967311173132
20
1354.6058713228083
42
-0.41421331375981718
10
1941.6967319661287
20
1353.605871322809
10
1927.3154961832297
20
1353.6058591157766
42
-0.41421356237284529
10
1926.3154961832297
20
1354.6058591157762
10
1926.3154961832297
20
1366.6058591157764
42
-0.41421356237292856
10
1927.3154961832297
20
1367.6058591157764
10
1941.6967302684957
20
1367.6058713228081
42
-0.41421381098583387
10
1942.696731117313
20
1366.6058713228088
0
LWPOLYLINE
5
118
100
AcDbEntity
8
0
100
AcDbPolyline
90
8
70
1
43
0.0
10
1739.1967311173128
20
1353.6058713228081
42
-0.4142135751759663
10
1738.1967311173119
20
1354.6058713665195
10
1738.1967311173116
20
1366.6058713228088
42
-0.41421356237301177
10
1739.1967311173128
20
1367.605871322809
10
1753.5779961832302
20
1367.6058591157764
42
-0.41421356237309503
10
1754.5779961832307
20
1366.6058591157764
10
1754.57799618323
20
1354.6058591157766
42
-0.41421356237326151
10
1753.5779961832302
20
1353.6058591157766
0
LWPOLYLINE
5
119
100
AcDbEntity
8
0
100
AcDbPolyline
90
21
70
1
43
0.0
10
1992.7029200821562
20
1430.8058530122614
42
-0.41421356237301177
10
1991.7029200821562
20
1429.8058530122612
10
1991.6159205704366
20
1429.8058530122612
10
1991.6159205704369
20
1428.8058530122614
42
-0.41421356237334478
10
1990.6159205704371
20
1427.8058530122612
10
1985.6159205704371
20
1427.8058530122612
42
-0.41421356237326151
10
1984.6159205704373
20
1428.8058530122614
10
1984.6159205704375
20
1429.8058530122612
10
1967.7399740923988
20
1429.8058530122612
10
1967.7399440079387
20
1429.7981023090215
10
1967.7399440079371
20
1428.8058530122614
42
-0.41421356237334478
10
1966.7399440079371
20
1427.8058530122612
10
1961.7399440079371
20
1427.8058530122612
42
-0.41421356237342799
10
1960.7399440079369
20
1428.8058530122614
10
1960.7399440079371
20
1429.8058530122612
10
1960.6529200821556
20
1429.8058530122614
42
-0.41421357517555002
10
1959.6529200821558
20
1430.8058530559724
10
1959.6529200821556
20
1442.8058530122617
42
-0.41421356237301177
10
1960.6529200821556
20
1443.8058530122617
10
1991.7029200821562
20
1443.8058530122617
42
-0.41421354957030715
10
1992.7029200821562
20
1442.8058530559726
0
LWPOLYLINE
5
120
100
AcDbEntity
8
0
100
AcDbPolyline
90
8
70
1
43
0.0
10
1906.9779200821561
20
1411.7558652192927
42
-0.41421356237301177
10
1905.9779200821558
20
1410.7558652192927
10
1893.9779200821556
20
1410.7558652192927
42
-0.41421357517579976
10
1892.9779200821556
20
1411.7558652630037
10
1892.9779200821556
20
1423.7558652192929
42
-0.41421356237334478
10
1893.9779200821558
20
1424.7558652192927
10
1905.9779200821558
20
1424.7558652192929
42
-0.41421354957030715
10
1906.9779200821561
20
1423.7558652630041
0
LWPOLYLINE
5
121
100
AcDbEntity
8
0
100
AcDbPolyline
90
8
70
1
43
0.0
10
1864.4029383927023
20
1442.8058530122617
42
-0.41421356237309503
10
1865.4029383927025
20
1443.8058530122617
10
1877.4029383927027
20
1443.8058530122614
42
-0.41421354957055689
10
1878.4029383927027
20
1442.8058530559726
10
1878.4029383927029
20
1430.8058530122614
42
-0.41421356237309503
10
1877.4029383927027
20
1429.8058530122612
10
1865.4029383927025
20
1429.8058530122614
42
-0.41421357517563329
10
1864.4029383927025
20
1430.8058530559724
0
LWPOLYLINE
5
122
100
AcDbEntity
8
0
100
AcDbPolyline
90
8
70
1
43
0.0
10
1729.7654261856712
20
1424.7558652192927
42
-0.4142135495706401
10
1730.7654261856715
20
1423.7558652630039
10
1730.7654261856715
20
1411.7558652192927
42
-0.41421356237301177
10
1729.7654261856712
20
1410.7558652192927
10
1717.7654261856715
20
1410.7558652192927
42
-0.41421357517613278
10
1716.765426185671
20
1411.7558652630041
10
1716.765426185671
20
1423.7558652192929
42
-0.41421356237334478
10
1717.7654261856715
20
1424.7558652192927
0
LWPOLYLINE
5
123
100
AcDbEntity
8
0
100
AcDbPolyline
90
8
70
1
43
0.0
10
1740.5779261856715
20
1423.7558652192929
42
-0.41421356237334478
10
1741.5779261856715
20
1424.7558652192927
10
1753.5779261856712
20
1424.7558652192927
42
-0.4142135495706401
10
1754.5779261856715
20
1423.7558652630039
10
1754.5779261856717
20
1411.7558652192927
42
-0.41421356237301177
10
1753.5779261856715
20
1410.7558652192927
10
1741.5779261856715
20
1410.7558652192927
42
-0.41421357517613278
10
1740.5779261856715
20
1411.7558652630041
0
LWPOLYLINE
5
124
100
AcDbEntity
8
0
100
AcDbPolyline
90
8
70
1
43
0.0
10
1732.0529322891869
20
1429.8058530122614
42
-0.41421357517563329
10
1731.0529322891871
20
1430.8058530559724
10
1731.0529322891871
20
1442.8058530122617
42
-0.41421356237301177
10
1732.0529322891869
20
1443.8058530122617
10
1744.0529322891869
20
1443.8058530122614
42
-0.41421354957055689
10
1745.0529322891866
20
1442.8058530559726
10
1745.0529322891871
20
1430.8058530122614
42
-0.4142135623731783
10
1744.0529322891869
20
1429.8058530122614
0
LWPOLYLINE
5
125
100
AcDbEntity
8
0
100
AcDbPolyline
90
8
70
1
43
0.0
10
1763.1029200821561
20
1443.8058530122614
42
-0.41421354957047363
10
1764.1029200821558
20
1442.8058530559726
10
1764.1029200821558
20
1430.8058530122617
42
-0.41421356237326151
10
1763.1029200821561
20
1429.8058530122614
10
1751.1029200821563
20
1429.8058530122612
42
-0.41421357517588303
10
1750.1029200821558
20
1430.8058530559724
10
1750.1029200821558
20
1442.8058530122617
42
-0.41421356237309503
10
1751.1029200821563
20
1443.8058530122621
0
LWPOLYLINE
5
126
100
AcDbEntity
8
0
100
AcDbPolyline
90
8
70
1
43
0.0
10
1829.7779383927025
20
1424.7558652192927
42
-0.41421354957047363
10
1830.7779383927025
20
1423.7558652630041
10
1830.7779383927027
20
1411.7558652192927
42
-0.41421356237301177
10
1829.7779383927025
20
1410.7558652192927
10
1817.7779383927027
20
1410.7558652192927
42
-0.41421357517613278
10
1816.7779383927023
20
1411.7558652630041
10
1816.7779383927023
20
1423.7558652192929
42
-0.41421356237334478
10
1817.7779383927027
20
1424.7558652192927
0
LWPOLYLINE
5
127
100
AcDbEntity
8
0
100
AcDbPolyline
90
8
70
1
43
0.0
10
1831.0654444962186
20
1385.6558591157773
42
-0.41421356237359452
10
1832.0654444962181
20
1386.6558591157768
10
1844.0654444962181
20
1386.6558591157773
42
-0.41421354957030715
10
1845.0654444962188
20
1385.6558591594885
10
1845.0654444962186
20
1373.655859115777
42
-0.4142135623731783
10
1844.0654444962181
20
1372.6558591157768
10
1832.0654444962181
20
1372.6558591157773
42
-0.41421357517563329
10
1831.0654444962183
20
1373.6558591594883
0
LWPOLYLINE
5
128
100
AcDbEntity
8
0
100
AcDbPolyline
90
8
70
1
43
0.0
10
1805.9654383927032
20
1386.6558591157768
42
-0.41421354957047363
10
1806.9654383927027
20
1385.655859159488
10
1806.9654383927027
20
1373.655859115777
42
-0.41421356237326151
10
1805.9654383927032
20
1372.6558591157768
10
1793.9654383927032
20
1372.6558591157768
42
-0.41421357517588303
10
1792.9654383927027
20
1373.6558591594883
10
1792.9654383927025
20
1385.655859115777
42
-0.41421356237334478
10
1793.9654383927029
20
1386.6558591157773
0
LWPOLYLINE
5
129
100
AcDbEntity
8
0
100
AcDbPolyline
90
8
70
1
43
0.0
10
1798.7279200821556
20
1410.7558652192927
42
-0.41421357517613278
10
1797.7279200821554
20
1411.7558652630041
10
1797.7279200821556
20
1423.7558652192929
42
-0.41421356237334478
10
1798.7279200821558
20
1424.7558652192927
10
1810.7279200821558
20
1424.7558652192927
42
-0.41421354957047363
10
1811.7279200821556
20
1423.7558652630041
10
1811.7279200821558
20
1411.7558652192927
42
-0.41421356237301177
10
1810.7279200821558
20
1410.7558652192927
0
LWPOLYLINE
5
130
100
AcDbEntity
8
0
100
AcDbPolyline
90
8
70
1
43
0.0
10
1855.8779444962183
20
1410.7558652192927
42
-0.41421357517621599
10
1854.8779444962183
20
1411.7558652630041
10
1854.8779444962183
20
1423.7558652192929
42
-0.41421356237351126
10
1855.8779444962183
20
1424.7558652192929
10
1867.8779444962183
20
1424.7558652192934
42
-0.41421354957047363
10
1868.8779444962188
20
1423.7558652630041
10
1868.8779444962188
20
1411.7558652192927
42
-0.41421356237301177
10
1867.8779444962183
20
1410.7558652192924
0
LWPOLYLINE
5
131
100
AcDbEntity
8
0
100
AcDbPolyline
90
8
70
1
43
0.0
10
1889.2154383927025
20
1372.6558591157773
42
-0.41421357517563329
10
1888.2154383927025
20
1373.6558591594883
10
1888.2154383927023
20
1385.655859115777
42
-0.41421356237351126
10
1889.2154383927025
20
1386.6558591157768
10
1901.2154383927027
20
1386.6558591157768
42
-0.41421354957055689
10
1902.2154383927025
20
1385.655859159488
10
1902.2154383927025
20
1373.655859115777
42
-0.41421356237334478
10
1901.2154383927027
20
1372.6558591157768
0
LWPOLYLINE
5
132
100
AcDbEntity
8
0
100
AcDbPolyline
90
40
70
1
43
0.0
10
2013.7529872208274
20
1353.6058560640188
42
-0.41421356237326151
10
2011.7529872208272
20
1351.6058560640186
10
2003.202017338615
20
1351.6058560640192
42
0.40645566946654815
10
1999.5020173386156
20
1348.002844165085
42
-0.97378699971191141
10
1994.0039571030393
20
1348.002844165085
42
0.40645566946650463
10
1990.3039571030395
20
1351.6058560640186
10
1913.2853506719484
20
1351.6058560640186
42
0.40645566946643813
10
1909.5853506719484
20
1348.002844165085
42
-0.97378699971191029
10
1904.087290436373
20
1348.002844165085
42
0.40645566946648221
10
1900.387290436373
20
1351.6058560640186
10
1823.3686260218838
20
1351.6058560640186
42
0.40645566946652639
10
1819.6686260218844
20
1348.002844165085
42
-0.97378699971190918
10
1814.1705657863085
20
1348.002844165085
42
0.40645566946652639
10
1810.4705657863085
20
1351.6058560640186
10
1733.4519593552172
20
1351.6058560640183
42
0.40645566946648165
10
1729.7519593552174
20
1348.002844165085
42
-0.97378699971180849
10
1724.2538991196418
20
1348.002844165085
42
0.40645566946657052
10
1720.5538991196418
20
1351.6058560640186
10
1712.0029292374297
20
1351.605856064019
42
-0.41421356237313667
10
1710.0029292374297
20
1353.6058560640188
10
1710.0029292374297
20
1443.8058713228097
42
-0.4142135623731783
10
1712.0029292374297
20
1445.8058713228097
10
1720.5538991196418
20
1445.8058713228097
42
0.40645566946652634
10
1724.2538991196416
20
1449.4088832217437
42
-0.97378699971205995
10
1729.7519593552172
20
1449.4088832217435
42
0.40645566946652639
10
1733.4519593552172
20
1445.8058713228097
10
1810.4705657863085
20
1445.8058713228102
42
0.40645566946648221
10
1814.1705657863085
20
1449.4088832217435
42
-0.97378699971180738
10
1819.6686260218839
20
1449.4088832217435
42
0.40645566946648221
10
1823.368626021884
20
1445.8058713228097
10
1900.387290436373
20
1445.8058713228097
42
0.40645566946652578
10
1904.0872904363723
20
1449.4088832217437
42
-0.97378699971196325
10
1909.5853506719484
20
1449.4088832217435
42
0.40645566946652639
10
1913.2853506719484
20
1445.8058713228097
10
1990.3039571030397
20
1445.8058713228097
42
0.40645566946648165
10
1994.0039571030391
20
1449.4088832217437
42
-0.97378699971205995
10
1999.5020173386149
20
1449.4088832217435
42
0.406455669466527
10
2003.2020173386152
20
1445.8058713228097
10
2011.7529872208272
20
1445.8058713228097
42
-0.41421356237321988
10
2013.7529872208277
20
1443.8058713228097
0
LWPOLYLINE
5
133
100
AcDbEntity
8
0
100
AcDbPolyline
90
8
70
1
43
0.0
10
2010.7529872208274
20
1424.7558835298405
42
-0.41421356237342799
10
2011.752987220827
20
1423.7558835298412
10
2011.7529872208277
20
1411.7558835298407
42
-0.41421357517563329
10
2010.752987177116
20
1410.755883529841
10
1998.7529872208268
20
1410.755883529841
42
-0.41421356237326151
10
1997.7529872208268
20
1411.7558835298407
10
1997.7529872208265
20
1423.7558835298412
42
-0.41421354957080664
10
1998.7529871771155
20
1424.7558835298405
0
LWPOLYLINE
5
134
100
AcDbEntity
8
0
100
AcDbPolyline
90
8
70
1
43
0.0
10
1792.6779322891875
20
1411.7558652192927
42
-0.41421356237309503
10
1791.6779322891871
20
1410.7558652192927
10
1779.6779322891871
20
1410.7558652192927
42
-0.41421357517579976
10
1778.6779322891871
20
1411.7558652630037
10
1778.6779322891869
20
1423.7558652192929
42
-0.41421356237309503
10
1779.6779322891869
20
1424.7558652192934
10
1791.6779322891871
20
1424.7558652192927
42
-0.41421354957047363
10
1792.6779322891869
20
1423.7558652630041
0
LWPOLYLINE
5
135
100
AcDbEntity
8
0
100
AcDbPolyline
90
8
70
1
43
0.0
10
2011.7529872208279
20
1354.6058743745677
42
-0.41421357517604951
10
2010.7529871771169
20
1353.6058743745671
10
1998.752987220827
20
1353.6058743745666
42
-0.41421356237326151
10
1997.7529872208265
20
1354.6058743745677
10
1997.7529872208265
20
1366.6058743745675
42
-0.41421354957014067
10
1998.7529871771153
20
1367.6058743745671
10
2010.7529872208274
20
1367.6058743745673
42
-0.41421356237342799
10
2011.7529872208277
20
1366.6058743745671
0
LWPOLYLINE
5
136
100
AcDbEntity
8
0
100
AcDbPolyline
90
8
70
1
43
0.0
10
1903.5029444962183
20
1429.8058530122614
42
-0.41421357517579976
10
1902.5029444962183
20
1430.8058530559724
10
1902.5029444962183
20
1442.8058530122617
42
-0.41421356237301177
10
1903.5029444962183
20
1443.8058530122617
10
1915.5029444962181
20
1443.8058530122614
42
-0.41421354957055689
10
1916.5029444962181
20
1442.8058530559726
10
1916.5029444962181
20
1430.8058530122617
42
-0.41421356237334478
10
1915.5029444962181
20
1429.8058530122614
0
LWPOLYLINE
5
137
100
AcDbEntity
8
0
100
AcDbPolyline
90
8
70
1
43
0.0
10
1845.3529200821552
20
1442.8058530122617
42
-0.41421356237292856
10
1846.3529200821558
20
1443.8058530122614
10
1858.3529200821556
20
1443.8058530122614
42
-0.41421354957055689
10
1859.3529200821556
20
1442.8058530559726
10
1859.3529200821558
20
1430.8058530122614
42
-0.41421356237309503
10
1858.3529200821556
20
1429.8058530122612
10
1846.3529200821558
20
1429.8058530122614
42
-0.41421357517563329
10
1845.3529200821558
20
1430.8058530559724
0
LWPOLYLINE
5
138
100
AcDbEntity
8
0
100
AcDbPolyline
90
8
70
1
43
0.0
10
1945.0779261856715
20
1411.7558652192927
42
-0.41421356237301177
10
1944.0779261856712
20
1410.7558652192927
10
1932.077926185671
20
1410.7558652192927
42
-0.41421357517613278
10
1931.077926185671
20
1411.7558652630041
10
1931.0779261856717
20
1423.7558652192929
42
-0.41421356237309503
10
1932.0779261856715
20
1424.7558652192929
10
1944.0779261856712
20
1424.7558652192927
42
-0.41421354957047363
10
1945.0779261856712
20
1423.7558652630041
0
LWPOLYLINE
5
139
100
AcDbEntity
8
0
100
AcDbPolyline
90
8
70
1
43
0.0
10
1773.6279444962183
20
1411.7558652192927
42
-0.41421356237301177
10
1772.6279444962183
20
1410.7558652192927
10
1760.6279444962181
20
1410.7558652192927
42
-0.41421357517613278
10
1759.6279444962179
20
1411.7558652630041
10
1759.6279444962181
20
1423.7558652192929
42
-0.41421356237334478
10
1760.6279444962183
20
1424.7558652192927
10
1772.6279444962183
20
1424.7558652192927
42
-0.4142135495706401
10
1773.6279444962183
20
1423.7558652630039
0
LWPOLYLINE
5
140
100
AcDbEntity
8
0
100
AcDbPolyline
90
8
70
1
43
0.0
10
1997.7529872208265
20
1385.6558774263258
42
-0.41421354957014067
10
1998.7529871771153
20
1386.6558774263253
10
2010.7529872208274
20
1386.6558774263251
42
-0.41421356237301177
10
2011.7529872208272
20
1385.6558774263258
10
2011.7529872208277
20
1373.6558774263256
42
-0.41421357517613278
10
2010.752987177116
20
1372.6558774263256
10
1998.7529872208268
20
1372.6558774263253
42
-0.41421356237326151
10
1997.7529872208265
20
1373.6558774263256
0
LWPOLYLINE
5
141
100
AcDbEntity
8
0
100
AcDbPolyline
90
8
70
1
43
0.0
10
1870.1654200821556
20
1372.6558591157773
42
-0.41421357517555002
10
1869.1654200821558
20
1373.6558591594885
10
1869.1654200821554
20
1385.655859115777
42
-0.41421356237351126
10
1870.1654200821556
20
1386.6558591157768
10
1882.1654200821556
20
1386.6558591157768
42
-0.41421354957055689
10
1883.1654200821554
20
1385.655859159488
10
1883.1654200821561
20
1373.655859115777
42
-0.41421356237351126
10
1882.1654200821558
20
1372.6558591157773
0
LWPOLYLINE
5
142
100
AcDbEntity
8
0
100
AcDbPolyline
90
8
70
1
43
0.0
10
1783.1529383927027
20
1430.8058530122617
42
-0.41421356237326151
10
1782.1529383927032
20
1429.8058530122614
10
1770.1529383927029
20
1429.8058530122612
42
-0.41421357517588303
10
1769.1529383927025
20
1430.8058530559724
10
1769.1529383927025
20
1442.8058530122617
42
-0.41421356237309503
10
1770.1529383927029
20
1443.8058530122621
10
1782.1529383927032
20
1443.8058530122614
42
-0.41421354957047363
10
1783.1529383927027
20
1442.8058530559726
0
LWPOLYLINE
5
143
100
AcDbEntity
8
0
100
AcDbPolyline
90
8
70
1
43
0.0
10
1898.7404322891873
20
1391.7058469087453
42
-0.41421357517588303
10
1897.7404322891869
20
1392.7058469524573
10
1897.7404322891869
20
1404.7058469087458
42
-0.4142135623731783
10
1898.7404322891873
20
1405.7058469087465
10
1910.7404322891875
20
1405.7058469087456
42
-0.41421354957030715
10
1911.7404322891871
20
1404.7058469524575
10
1911.7404322891875
20
1392.7058469087458
42
-0.41421356237292856
10
1910.7404322891875
20
1391.705846908746
0
LWPOLYLINE
5
144
100
AcDbEntity
8
0
100
AcDbPolyline
90
8
70
1
43
0.0
10
1997.7529872208263
20
1404.7058652192945
42
-0.41421354957030715
10
1998.7529871771155
20
1405.7058652192941
10
2010.7529872208274
20
1405.7058652192941
42
-0.41421356237334478
10
2011.7529872208277
20
1404.7058652192941
10
2011.7529872208274
20
1392.7058652192936
42
-0.41421357517563329
10
2010.752987177116
20
1391.7058652192941
10
1998.7529872208268
20
1391.7058652192941
42
-0.41421356237326151
10
1997.7529872208268
20
1392.7058652192941
0
LWPOLYLINE
5
145
100
AcDbEntity
8
0
100
AcDbPolyline
90
8
70
1
43
0.0
10
1813.0154261856715
20
1372.6558591157773
42
-0.41421357517563329
10
1812.0154261856715
20
1373.6558591594883
10
1812.0154261856717
20
1385.6558591157773
42
-0.41421356237359452
10
1813.0154261856715
20
1386.6558591157768
10
1825.0154261856712
20
1386.6558591157773
42
-0.41421354957030715
10
1826.0154261856721
20
1385.6558591594885
10
1826.0154261856719
20
1373.655859115777
42
-0.4142135623731783
10
1825.0154261856712
20
1372.6558591157768
0
LWPOLYLINE
5
146
100
AcDbEntity
8
0
100
AcDbPolyline
90
8
70
1
43
0.0
10
1789.2029261856712
20
1429.8058530122614
42
-0.41421357517563329
10
1788.202926185671
20
1430.8058530559729
10
1788.2029261856712
20
1442.8058530122617
42
-0.41421356237301177
10
1789.2029261856712
20
1443.8058530122617
10
1801.2029261856715
20
1443.8058530122614
42
-0.4142135495706401
10
1802.2029261856715
20
1442.8058530559726
10
1802.2029261856715
20
1430.8058530122614
42
-0.41421356237292856
10
1801.2029261856715
20
1429.8058530122605
0
LWPOLYLINE
5
147
100
AcDbEntity
8
0
100
AcDbPolyline
90
8
70
1
43
0.0
10
1891.6904444962183
20
1405.7058469087456
42
-0.41421354957039042
10
1892.6904444962181
20
1404.7058469524575
10
1892.6904444962188
20
1392.7058469087458
42
-0.41421356237301177
10
1891.6904444962183
20
1391.7058469087456
10
1879.6904444962183
20
1391.7058469087456
42
-0.41421357517621599
10
1878.6904444962181
20
1392.7058469524573
10
1878.6904444962188
20
1404.7058469087458
42
-0.4142135623731783
10
1879.6904444962183
20
1405.7058469087456
0
LWPOLYLINE
5
148
100
AcDbEntity
8
0
100
AcDbPolyline
90
8
70
1
43
0.0
10
1921.2654261856712
20
1373.655859115777
42
-0.41421356237334478
10
1920.2654261856715
20
1372.6558591157768
10
1908.2654261856715
20
1372.6558591157773
42
-0.41421357517579976
10
1907.2654261856715
20
1373.6558591594883
10
1907.2654261856712
20
1385.655859115777
42
-0.41421356237334478
10
1908.2654261856715
20
1386.6558591157768
10
1920.2654261856715
20
1386.6558591157768
42
-0.41421354957055689
10
1921.2654261856712
20
1385.655859159488
0
LWPOLYLINE
5
149
100
AcDbEntity
8
0
100
AcDbPolyline
90
8
70
1
43
0.0
10
1848.8279261856712
20
1424.7558652192934
42
-0.41421354957047363
10
1849.8279261856717
20
1423.7558652630041
10
1849.8279261856717
20
1411.7558652192927
42
-0.41421356237301177
10
1848.8279261856712
20
1410.7558652192924
10
1836.8279261856715
20
1410.7558652192927
42
-0.41421357517621599
10
1835.8279261856715
20
1411.7558652630041
10
1835.8279261856717
20
1423.7558652192929
42
-0.4142135623731783
10
1836.8279261856715
20
1424.7558652192927
0
LWPOLYLINE
5
150
100
AcDbEntity
8
0
100
AcDbPolyline
90
8
70
1
43
0.0
10
1883.4529261856712
20
1442.8058530122617
42
-0.41421356237301177
10
1884.4529261856712
20
1443.8058530122617
10
1896.4529261856715
20
1443.8058530122614
42
-0.41421354957055689
10
1897.4529261856715
20
1442.8058530559726
10
1897.4529261856715
20
1430.8058530122617
42
-0.41421356237334478
10
1896.4529261856715
20
1429.8058530122614
10
1884.4529261856712
20
1429.8058530122614
42
-0.41421357517579976
10
1883.4529261856712
20
1430.8058530559724
0
LWPOLYLINE
5
151
100
AcDbEntity
8
0
100
AcDbPolyline
90
8
70
1
43
0.0
10
1913.0279383927027
20
1410.7558652192927
42
-0.41421357517579976
10
1912.0279383927027
20
1411.7558652630037
10
1912.0279383927025
20
1423.7558652192929
42
-0.41421356237334478
10
1913.0279383927027
20
1424.7558652192927
10
1925.0279383927025
20
1424.7558652192927
42
-0.41421354957047363
10
1926.0279383927025
20
1423.7558652630041
10
1926.0279383927027
20
1411.7558652192927
42
-0.4142135623731783
10
1925.0279383927025
20
1410.7558652192927
0
LWPOLYLINE
5
152
100
AcDbEntity
8
0
100
AcDbPolyline
90
8
70
1
43
0.0
10
1853.5904383927025
20
1405.7058469087456
42
-0.41421354957039042
10
1854.5904383927023
20
1404.7058469524575
10
1854.5904383927029
20
1392.7058469087458
42
-0.41421356237301177
10
1853.5904383927027
20
1391.705846908746
10
1841.5904383927027
20
1391.7058469087456
42
-0.41421357517621599
10
1840.5904383927027
20
1392.7058469524573
10
1840.5904383927027
20
1404.7058469087458
42
-0.41421356237334478
10
1841.5904383927027
20
1405.7058469087456
0
LWPOLYLINE
5
153
100
AcDbEntity
8
0
100
AcDbPolyline
90
8
70
1
43
0.0
10
1835.5404200821558
20
1392.7058469087458
42
-0.41421356237301177
10
1834.5404200821556
20
1391.705846908746
10
1822.5404200821558
20
1391.7058469087456
42
-0.41421357517621599
10
1821.5404200821556
20
1392.7058469524573
10
1821.5404200821556
20
1404.7058469087458
42
-0.41421356237334478
10
1822.5404200821558
20
1405.7058469087456
10
1834.5404200821556
20
1405.7058469087456
42
-0.41421354957039042
10
1835.5404200821556
20
1404.7058469524575
0
LWPOLYLINE
5
154
100
AcDbEntity
8
0
100
AcDbPolyline
90
8
70
1
43
0.0
10
1953.6029200821556
20
1443.8058530122617
42
-0.41421354957022388
10
1954.6029200821565
20
1442.8058530559726
10
1954.6029200821563
20
1430.8058530122614
42
-0.41421356237309503
10
1953.6029200821556
20
1429.8058530122607
10
1941.6029200821558
20
1429.8058530122614
42
-0.41421357517563329
10
1940.6029200821558
20
1430.8058530559724
10
1940.6029200821558
20
1442.8058530122617
42
-0.41421356237301177
10
1941.6029200821558
20
1443.8058530122617
0
LWPOLYLINE
5
155
100
AcDbEntity
8
0
100
AcDbPolyline
90
8
70
1
43
0.0
10
1930.7904200821563
20
1392.7058469087458
42
-0.41421356237301177
10
1929.7904200821558
20
1391.7058469087456
10
1917.7904200821558
20
1391.705846908746
42
-0.41421357517621599
10
1916.7904200821558
20
1392.7058469524573
10
1916.7904200821558
20
1404.705846908746
42
-0.41421356237351126
10
1917.7904200821558
20
1405.7058469087463
10
1929.7904200821558
20
1405.7058469087463
42
-0.41421354957022388
10
1930.7904200821563
20
1404.7058469524575
0
LWPOLYLINE
5
156
100
AcDbEntity
8
0
100
AcDbPolyline
90
8
70
1
43
0.0
10
1816.4904322891875
20
1392.7058469087458
42
-0.41421356237309503
10
1815.4904322891869
20
1391.705846908746
10
1803.4904322891871
20
1391.705846908746
42
-0.41421357517588303
10
1802.4904322891871
20
1392.7058469524573
10
1802.4904322891871
20
1404.7058469087458
42
-0.41421356237309503
10
1803.4904322891871
20
1405.7058469087463
10
1815.4904322891869
20
1405.7058469087456
42
-0.41421354957039042
10
1816.4904322891869
20
1404.7058469524575
0
LWPOLYLINE
5
157
100
AcDbEntity
8
0
100
AcDbPolyline
90
8
70
1
43
0.0
10
1726.002929237429
20
1430.8058530122617
42
-0.41421356237334478
10
1725.002929237429
20
1429.8058530122614
10
1713.0029292374293
20
1429.8058530122614
42
-0.41421357517579976
10
1712.0029292374293
20
1430.8058530559724
10
1712.0029292374293
20
1442.8058530122617
42
-0.41421356237301177
10
1713.0029292374293
20
1443.8058530122617
10
1725.002929237429
20
1443.8058530122614
42
-0.41421354957055689
10
1726.002929237429
20
1442.8058530559726
0
LWPOLYLINE
5
158
100
AcDbEntity
8
0
100
AcDbPolyline
90
8
70
1
43
0.0
10
1872.6404261856712
20
1405.7058469087456
42
-0.41421354957039042
10
1873.640426185671
20
1404.7058469524575
10
1873.6404261856717
20
1392.7058469087458
42
-0.41421356237301177
10
1872.6404261856715
20
1391.705846908746
10
1860.6404261856715
20
1391.7058469087456
42
-0.41421357517621599
10
1859.6404261856715
20
1392.7058469524573
10
1859.6404261856717
20
1404.7058469087458
42
-0.4142135623731783
10
1860.6404261856712
20
1405.7058469087456
0
LWPOLYLINE
5
159
100
AcDbEntity
8
0
100
AcDbPolyline
90
8
70
1
43
0.0
10
1784.4404444962183
20
1391.705846908746
42
-0.41421357517588303
10
1783.4404444962183
20
1392.7058469524573
10
1783.4404444962181
20
1404.7058469087458
42
-0.41421356237334478
10
1784.4404444962183
20
1405.7058469087456
10
1796.4404444962181
20
1405.705846908746
42
-0.41421354957055689
10
1797.4404444962183
20
1404.7058469524575
10
1797.4404444962183
20
1392.7058469087458
42
-0.4142135623731783
10
1796.4404444962181
20
1391.705846908746
0
LWPOLYLINE
5
160
100
AcDbEntity
8
0
100
AcDbPolyline
90
8
70
1
43
0.0
10
1926.3154444962179
20
1385.655859115777
42
-0.41421356237334478
10
1927.3154444962183
20
1386.6558591157768
10
1939.3154444962181
20
1386.6558591157768
42
-0.41421354957055689
10
1940.3154444962181
20
1385.655859159488
10
1940.3154444962181
20
1373.655859115777
42
-0.41421356237334478
10
1939.3154444962181
20
1372.6558591157768
10
1927.3154444962183
20
1372.6558591157773
42
-0.41421357517579976
10
1926.3154444962183
20
1373.6558591594883
0
LWPOLYLINE
5
161
100
AcDbEntity
8
0
100
AcDbPolyline
90
8
70
1
43
0.0
10
1774.9154200821563
20
1372.6558591157768
42
-0.41421357517588303
10
1773.9154200821556
20
1373.6558591594883
10
1773.9154200821556
20
1385.655859115777
42
-0.41421356237342799
10
1774.9154200821563
20
1386.6558591157768
10
1786.9154200821554
20
1386.6558591157768
42
-0.4142135495706401
10
1787.9154200821558
20
1385.655859159488
10
1787.9154200821558
20
1373.655859115777
42
-0.41421356237342799
10
1786.9154200821554
20
1372.6558591157768
0
LWPOLYLINE
5
162
100
AcDbEntity
8
0
100
AcDbPolyline
90
8
70
1
43
0.0
10
1887.9279322891875
20
1411.7558652192927
42
-0.41421356237301177
10
1886.9279322891873
20
1410.7558652192927
10
1874.9279322891871
20
1410.7558652192924
42
-0.41421357517571655
10
1873.9279322891866
20
1411.7558652630037
10
1873.9279322891869
20
1423.7558652192929
42
-0.4142135623731783
10
1874.9279322891871
20
1424.7558652192934
10
1886.9279322891873
20
1424.7558652192927
42
-0.41421354957039042
10
1887.9279322891871
20
1423.7558652630041
0
LWPOLYLINE
5
163
100
AcDbEntity
8
0
100
AcDbPolyline
90
8
70
1
43
0.0
10
1839.3029322891869
20
1443.8058530122614
42
-0.41421354957055689
10
1840.3029322891869
20
1442.8058530559726
10
1840.3029322891869
20
1430.8058530122617
42
-0.41421356237334478
10
1839.3029322891869
20
1429.8058530122614
10
1827.3029322891871
20
1429.8058530122614
42
-0.41421357517563329
10
1826.3029322891871
20
1430.8058530559724
10
1826.3029322891871
20
1442.8058530122617
42
-0.41421356237301177
10
1827.3029322891871
20
1443.8058530122617
0
LWPOLYLINE
5
164
100
AcDbEntity
8
0
100
AcDbPolyline
90
8
70
1
43
0.0
10
1778.390441444461
20
1392.7058469087458
42
-0.41421356237309503
10
1777.3904414444605
20
1391.705846908746
10
1765.3904414444605
20
1391.705846908746
42
-0.41421357517588303
10
1764.3904414444605
20
1392.7058469524573
10
1764.3904414444603
20
1404.7058469087458
42
-0.41421356237309503
10
1765.3904414444603
20
1405.7058469087463
10
1777.3904414444605
20
1405.7058469087456
42
-0.41421354957039042
10
1778.3904414444603
20
1404.7058469524575
0
LWPOLYLINE
5
165
100
AcDbEntity
8
0
100
AcDbPolyline
90
8
70
1
43
0.0
10
1754.8654322891869
20
1385.655859115777
42
-0.41421356237334478
10
1755.8654322891871
20
1386.6558591157768
10
1767.8654322891871
20
1386.6558591157768
42
-0.41421354957055689
10
1768.8654322891871
20
1385.655859159488
10
1768.8654322891871
20
1373.655859115777
42
-0.41421356237334478
10
1767.8654322891871
20
1372.6558591157768
10
1755.8654322891869
20
1372.6558591157773
42
-0.41421357517563329
10
1754.8654322891869
20
1373.6558591594883
0
LWPOLYLINE
5
166
100
AcDbEntity
8
0
100
AcDbPolyline
90
8
70
1
43
0.0
10
1759.3404383927032
20
1392.7058469087458
42
-0.41421356237301177
10
1758.3404383927029
20
1391.705846908746
10
1746.3404383927027
20
1391.7058469087456
42
-0.41421357517621599
10
1745.3404383927025
20
1392.7058469524573
10
1745.3404383927027
20
1404.7058469087458
42
-0.41421356237309503
10
1746.3404383927025
20
1405.705846908746
10
1758.3404383927029
20
1405.7058469087456
42
-0.41421354957030715
10
1759.3404383927027
20
1404.7058469524575
0
LWPOLYLINE
5
167
100
AcDbEntity
8
0
100
AcDbPolyline
90
8
70
1
43
0.0
10
1936.8404383927027
20
1391.705846908746
42
-0.41421357517588303
10
1935.8404383927027
20
1392.7058469524573
10
1935.8404383927023
20
1404.7058469087458
42
-0.41421356237334478
10
1936.8404383927027
20
1405.7058469087456
10
1948.8404383927025
20
1405.7058469087463
42
-0.41421354957022388
10
1949.8404383927029
20
1404.7058469524575
10
1949.8404383927029
20
1392.7058469087458
42
-0.41421356237301177
10
1948.8404383927025
20
1391.7058469087456
0
LWPOLYLINE
5
168
100
AcDbEntity
8
0
100
AcDbPolyline
90
8
70
1
43
0.0
10
1863.1154322891869
20
1386.6558591157768
42
-0.41421354957055689
10
1864.1154322891866
20
1385.655859159488
10
1864.1154322891866
20
1373.655859115777
42
-0.41421356237334478
10
1863.1154322891869
20
1372.6558591157768
10
1851.1154322891869
20
1372.6558591157773
42
-0.41421357517563329
10
1850.1154322891871
20
1373.6558591594883
10
1850.1154322891871
20
1385.655859115777
42
-0.41421356237334478
10
1851.1154322891871
20
1386.6558591157768
0
LWPOLYLINE
5
169
100
AcDbEntity
8
0
100
AcDbPolyline
90
8
70
1
43
0.0
10
1935.5529322891869
20
1430.8058530122614
42
-0.41421356237292856
10
1934.5529322891871
20
1429.8058530122612
10
1922.5529322891873
20
1429.8058530122612
42
-0.41421357517571655
10
1921.5529322891869
20
1430.8058530559724
10
1921.5529322891869
20
1442.8058530122617
42
-0.41421356237309503
10
1922.5529322891873
20
1443.8058530122621
10
1934.5529322891869
20
1443.8058530122614
42
-0.41421354957097312
10
1935.5529322891871
20
1442.8058530559726
0
LWPOLYLINE
5
170
100
AcDbEntity
8
0
100
AcDbPolyline
90
8
70
1
43
0.0
10
1821.2529444962183
20
1430.8058530122614
42
-0.41421356237292856
10
1820.2529444962183
20
1429.8058530122607
10
1808.2529444962183
20
1429.8058530122614
42
-0.41421357517563329
10
1807.2529444962179
20
1430.8058530559729
10
1807.2529444962183
20
1442.8058530122617
42
-0.41421356237301177
10
1808.2529444962183
20
1443.8058530122617
10
1820.2529444962183
20
1443.8058530122614
42
-0.41421354957088985
10
1821.2529444962183
20
1442.8058530559726
0
LWPOLYLINE
5
171
100
AcDbEntity
8
0
100
AcDbPolyline
90
8
70
1
43
0.0
10
1951.1279444962181
20
1410.7558652192927
42
-0.41421357517613278
10
1950.1279444962179
20
1411.7558652630041
10
1950.1279444962179
20
1423.7558652192929
42
-0.41421356237334478
10
1951.1279444962181
20
1424.7558652192927
10
1963.1279444962183
20
1424.7558652192927
42
-0.41421354957030715
10
1964.1279444962183
20
1423.7558652630041
10
1964.1279444962186
20
1411.7558652192927
42
-0.41421356237301177
10
1963.1279444962183
20
1410.7558652192927
0
LWPOLYLINE
5
172
100
AcDbEntity
8
0
100
AcDbPolyline
90
8
70
1
43
0.0
10
1991.7029872208277
20
1367.6058743745675
42
-0.41421356237292856
10
1992.7029872208277
20
1366.6058743745671
10
1992.7029872208282
20
1354.6058743745675
42
-0.41421357517579976
10
1991.7029871771165
20
1353.6058743745664
10
1979.7029872208277
20
1353.6058743745664
42
-0.41421356237284529
10
1978.7029872208268
20
1354.6058743745675
10
1978.7029872208266
20
1366.6058743745671
42
-0.41421354957097312
10
1979.7029871771156
20
1367.6058743745666
0
LWPOLYLINE
5
173
100
AcDbEntity
8
0
100
AcDbPolyline
90
8
70
1
43
0.0
10
1972.6529872208275
20
1367.6058743745675
42
-0.41421356237292856
10
1973.6529872208275
20
1366.6058743745671
10
1973.6529872208282
20
1354.6058743745675
42
-0.41421357517571655
10
1972.6529871771165
20
1353.6058743745666
10
1960.6529872208271
20
1353.6058743745671
42
-0.41421356237267881
10
1959.6529872208268
20
1354.6058743745675
10
1959.6529872208268
20
1366.6058743745671
42
-0.41421354957080664
10
1960.6529871771154
20
1367.6058743745671
0
LWPOLYLINE
5
174
100
AcDbEntity
8
0
100
AcDbPolyline
90
8
70
1
43
0.0
10
1729.7654961832302
20
1367.6058591157764
42
-0.41421356237309503
10
1730.7654961832307
20
1366.6058591157764
10
1730.7654961832302
20
1354.6058591157766
42
-0.41421356237326151
10
1729.7654961832302
20
1353.6058591157766
10
1715.3842311173121
20
1353.6058713228085
42
-0.41421357517579976
10
1714.3842311173123
20
1354.6058713665195
10
1714.3842311173123
20
1366.6058713228088
42
-0.41421356237309503
10
1715.3842311173121
20
1367.6058713228088
0
LWPOLYLINE
5
175
100
AcDbEntity
8
0
100
AcDbPolyline
90
8
70
1
43
0.0
10
1762.0092311173116
20
1366.6058713228088
42
-0.41421356237301177
10
1763.0092311173125
20
1367.605871322809
10
1777.3904961832304
20
1367.6058591157764
42
-0.41421356237309503
10
1778.3904961832309
20
1366.6058591157764
10
1778.3904961832304
20
1354.6058591157766
42
-0.41421356237326151
10
1777.3904961832304
20
1353.6058591157766
10
1763.0092311173125
20
1353.6058713228081
42
-0.4142135751759663
10
1762.0092311173119
20
1354.6058713665195
0
LWPOLYLINE
5
176
100
AcDbEntity
8
0
100
AcDbPolyline
90
8
70
1
43
0.0
10
2010.7529872208279
20
1443.8058530341173
42
-0.41421356237284529
10
2011.7529872208274
20
1442.8058530341173
10
2011.7529872208274
20
1430.8058530341173
42
-0.41421356237301177
10
2010.7529872208279
20
1429.8058530341168
10
1998.7529872208277
20
1429.8058530341173
42
-0.41421356237326151
10
1997.7529872208274
20
1430.8058530341173
10
1997.7529872208274
20
1442.805853034117
42
-0.41421356237342799
10
1998.7529872208277
20
1443.8058530341173
0
ARC
5
177
100
AcDbEntity
8
0
100
AcDbCircle
10
1716.471198585574
20
1371.6558591157766
30
0
40
0.99999999999994316
210
0
220
0
230
1
100
AcDbArc
50
180
51
269.99999999998698
0
ARC
5
178
100
AcDbEntity
8
0
100
AcDbCircle
10
1721.4711985856195
20
1371.6558591157545
30
0
40
0.99999999997749001
210
0
220
0
230
1
100
AcDbArc
50
-90.000000002644597
51
0
0
ARC
5
179
100
AcDbEntity
8
0
100
AcDbCircle
10
1715.3854322891859
20
1373.6558591376318
30
0
40
0.99999999999937472
210
0
220
0
230
1
100
AcDbArc
50
180
51
270.00000000003905
0
ARC
5
180
100
AcDbEntity
8
0
100
AcDbCircle
10
1715.3854322891859
20
1385.6558591157782
30
0
40
0.99999999999937472
210
0
220
-0
230
1
100
AcDbArc
50
89.99999999996092
51
180
0
ARC
5
181
100
AcDbEntity
8
0
100
AcDbCircle
10
1748.8154322891876
20
1373.6558591157766
30
0
40
0.99999999999937472
210
0
220
0
230
1
100
AcDbArc
50
-90.00000000003908
51
0
0
ARC
5
182
100
AcDbEntity
8
0
100
AcDbCircle
10
1748.8154322891876
20
1385.6558591157775
30
0
40
0.99999999999965894
210
0
220
0
230
1
100
AcDbArc
50
0
51
90.00000000003908
0
ARC
5
183
100
AcDbEntity
8
0
100
AcDbCircle
10
1745.3471751480731
20
1371.6558591157773
30
0
40
1.0000000000007958
210
0
220
0
230
1
100
AcDbArc
50
-89.99999999996092
51
0
0
ARC
5
184
100
AcDbEntity
8
0
100
AcDbCircle
10
1740.347175148074
20
1371.6558591157766
30
0
40
0.99999999999994316
210
0
220
0
230
1
100
AcDbArc
50
180
51
270
0
LWPOLYLINE
5
185
100
AcDbEntity
8
0
100
AcDbPolyline
90
45
70
1
43
0.0
10
1990.2904383927032
20
1417.6638719906105
42
-0.41276675263373985
10
1989.2904505997822
20
1416.6688142134217
10
1987.9404444962183
20
1416.6688142134219
10
1987.9404444962183
20
1415.230856064019
10
1989.2904383927023
20
1415.230856064019
42
-0.41421356237351126
10
1990.290438392703
20
1414.2308560640188
10
1990.290438392703
20
1402.230856064019
42
-0.41421356237301177
10
1989.2904383927023
20
1401.2308560640188
10
1989.2346644669215
20
1401.2308560640188
10
1989.2346644669215
20
1399.7928677827672
10
1989.2904505997362
20
1399.7928677827676
42
-0.41276709753937257
10
1990.2904383927032
20
1398.7978088268744
10
1990.2904383927032
20
1393.792867782769
42
-0.41421356237292856
10
1989.2904383927023
20
1392.7928677827688
10
1989.2346644669215
20
1392.7928677827688
10
1989.2346644669215
20
1392.7058469087458
42
-0.41421356237276202
10
1988.2346644669215
20
1391.705846908746
10
1983.1555039444588
20
1391.705846908746
42
-0.40150926316243474
10
1982.1990593340731
20
1392.7048979224762
10
1982.1990593340734
20
1392.7928677827686
10
1980.7966761856712
20
1392.792867782769
10
1980.7966761856715
20
1392.7058469087456
42
-0.41421356237326151
10
1979.7966761856717
20
1391.7058469087456
10
1955.8904383927027
20
1391.7058469087456
42
-0.41421356237334478
10
1954.8904383927024
20
1392.7058469087456
10
1954.8904383927027
20
1404.7058469306014
42
-0.41421356237301177
10
1955.8904383927027
20
1405.7058469306016
10
1958.358687904421
20
1405.7058469306014
10
1958.3586879044208
20
1406.705846908746
42
-0.41421356237326151
10
1959.3586879044215
20
1407.705846908746
10
1961.8586879043446
20
1407.7058469087458
10
1964.3230978374979
20
1407.7049101352347
42
-0.41421797508397901
10
1965.3231129034159
20
1406.7049101295079
10
1965.323112903417
20
1405.7058469306014
10
1976.2904383927028
20
1405.705846908746
10
1976.2904383927028
20
1410.7558652192927
10
1974.9404444962181
20
1410.7558652192927
42
-0.41421357517613278
10
1973.9404444962179
20
1411.7558652630041
10
1973.9404444962181
20
1423.7558652192929
42
-0.41421353676785233
10
1974.9404444087959
20
1424.7558652192927
10
1986.9404444962183
20
1424.7558652192927
42
-0.41421354957047363
10
1987.9404444962183
20
1423.7558652630041
10
1987.9404444962183
20
1423.668844345269
10
1989.2904383927023
20
1423.6688443452692
42
-0.41421356237342799
10
1990.2904383927025
20
1422.668844345269
0
LINE
5
186
100
AcDbEntity
8
0
100
AcDbLine
10
1859.3401894473686
20
1353.6058713228085
30
0
11
1842.687167518679
21
1353.6058713228085
31
0
0
LINE
5
187
100
AcDbEntity
8
0
100
AcDbLine
10
1963.0256211505273
20
1372.6558896333572
30
0
11
1960.5963123184879
21
1372.6558896333572
31
0
0
LINE
5
188
100
AcDbEntity
8
0
100
AcDbLine
10
1829.6871675186787
20
1353.605859115776
30
0
11
1842.687167518679
21
1353.6058591157762
31
0
0
LINE
5
189
100
AcDbEntity
8
0
100
AcDbLine
10
1960.5961909561784
20
1372.6558773769434
30
0
11
1960.5963123184874
21
1372.6558773769434
31
0
0
LINE
5
190
100
AcDbEntity
8
0
100
AcDbLine
10
1834.4480881935021
20
1367.6058591157764
30
0
11
1829.687167518679
21
1367.6058591157766
31
0
0
LINE
5
191
100
AcDbEntity
8
0
100
AcDbLine
10
1828.687167518679
20
1366.6058591157764
30
0
11
1828.687167518679
21
1354.6058591157762
31
0
0
LINE
5
192
100
AcDbEntity
8
0
100
AcDbLine
10
1834.4530292374293
20
1367.6058713228085
30
0
11
1834.4480881935021
21
1367.6058591157764
31
0
0
LINE
5
193
100
AcDbEntity
8
0
100
AcDbLine
10
1834.4530292374293
20
1367.6058713228085
30
0
11
1858.3462409561798
21
1367.6058713228085
31
0
0
LINE
5
194
100
AcDbEntity
8
0
100
AcDbLine
10
1859.3462409561992
20
1369.6058530122789
30
0
11
1869.108740956199
21
1369.6058530122789
31
0
0
LINE
5
195
100
AcDbEntity
8
0
100
AcDbLine
10
1858.3462409561798
20
1367.6058713228085
30
0
11
1858.3462409561796
21
1368.6058530122614
31
0
0
LINE
5
196
100
AcDbEntity
8
0
100
AcDbLine
10
1870.1087409562026
20
1368.6058530122616
30
0
11
1870.1087409562033
21
1367.6136037155013
31
0
0
LINE
5
197
100
AcDbEntity
8
0
100
AcDbLine
10
1870.1087409562033
20
1367.6136037155013
30
0
11
1870.1087710406625
21
1367.6058530122618
31
0
0
LINE
5
198
100
AcDbEntity
8
0
100
AcDbLine
10
1870.1087710406625
20
1367.6058530122618
30
0
11
1882.2222175186794
21
1367.6058530122614
31
0
0
LINE
5
199
100
AcDbEntity
8
0
100
AcDbLine
10
1882.2222175186794
20
1367.6058530122614
30
0
11
1882.2222175186791
21
1368.6058530122614
31
0
0
LINE
5
200
100
AcDbEntity
8
0
100
AcDbLine
10
1893.9847175186787
20
1368.6058530122612
30
0
11
1893.9847175186787
21
1354.6058530122616
31
0
0
LINE
5
201
100
AcDbEntity
8
0
100
AcDbLine
10
1883.2222175186794
20
1369.6058530122618
30
0
11
1892.9847175186794
21
1369.6058530122616
31
0
0
LINE
5
202
100
AcDbEntity
8
0
100
AcDbLine
10
1892.9847175186794
20
1353.6058530122612
30
0
11
1859.3462409561789
21
1353.6058530122612
31
0
0
LINE
5
203
100
AcDbEntity
8
0
100
AcDbLine
10
1859.3401894473686
20
1353.6058713228085
30
0
11
1859.3462409561789
21
1353.6058530122612
31
0
0
LINE
5
204
100
AcDbEntity
8
0
100
AcDbLine
10
1953.5092372208132
20
1372.6558774263249
30
0
11
1953.5961909561809
21
1372.6558773769782
31
0
0
LINE
5
205
100
AcDbEntity
8
0
100
AcDbLine
10
1953.5961909561809
20
1371.6558530122611
30
0
11
1953.5961909561809
21
1372.6558773769782
31
0
0
LINE
5
206
100
AcDbEntity
8
0
100
AcDbLine
10
1952.5092372208114
20
1385.6558774263251
30
0
11
1952.5092372208128
21
1373.6558774263253
31
0
0
LINE
5
207
100
AcDbEntity
8
0
100
AcDbLine
10
1953.5092372208119
20
1386.6558774263249
30
0
11
1960.5963123184883
21
1386.6558814454761
31
0
0
LINE
5
208
100
AcDbEntity
8
0
100
AcDbLine
10
1965.5092372208119
20
1386.6558652192932
30
0
11
1960.5963123184879
21
1386.6558652192932
31
0
0
LINE
5
209
100
AcDbEntity
8
0
100
AcDbLine
10
1965.5141782647165
20
1386.6558530122618
30
0
11
1975.0341792374293
21
1386.6558530122618
31
0
0
LINE
5
210
100
AcDbEntity
8
0
100
AcDbLine
10
1965.5141782647165
20
1386.6558530122618
30
0
11
1965.5092372208119
21
1386.6558652192932
31
0
0
LINE
5
211
100
AcDbEntity
8
0
100
AcDbLine
10
1976.0341792374293
20
1385.6558530122611
30
0
11
1976.0341792374293
21
1373.6558530122604
31
0
0
LINE
5
212
100
AcDbEntity
8
0
100
AcDbLine
10
1975.0341792374293
20
1372.6558530122609
30
0
11
1963.0341792374295
21
1372.6558530122613
31
0
0
LINE
5
213
100
AcDbEntity
8
0
100
AcDbLine
10
1963.0256211505273
20
1372.6558896333572
30
0
11
1963.0341792374295
21
1372.6558530122613
31
0
0
LINE
5
214
100
AcDbEntity
8
0
100
AcDbLine
10
1960.5961909561784
20
1372.6558773769434
30
0
11
1960.5961909561784
21
1371.6558530122609
31
0
0
LINE
5
215
100
AcDbEntity
8
0
100
AcDbLine
10
1959.596190956179
20
1370.6558530122611
30
0
11
1954.59619095618
21
1370.6558530122616
31
0
0
LINE
5
216
100
AcDbEntity
8
0
100
AcDbLine
10
1722.4711985855972
20
1372.6481084125371
30
0
11
1722.4712287174393
21
1372.6558713228087
31
0
0
LINE
5
217
100
AcDbEntity
8
0
100
AcDbLine
10
1739.347175148074
20
1372.6558591157773
30
0
11
1722.4712286937483
21
1372.6558591376327
31
0
0
LINE
5
218
100
AcDbEntity
8
0
100
AcDbLine
10
1722.471198585597
20
1371.6558591157768
30
0
11
1722.4711985855972
21
1372.6481084125371
31
0
0
LINE
5
219
100
AcDbEntity
8
0
100
AcDbLine
10
1721.4711985855733
20
1370.655859115777
30
0
11
1716.4711985855738
21
1370.6558591157768
31
0
0
LINE
5
220
100
AcDbEntity
8
0
100
AcDbLine
10
1715.471198585574
20
1371.6558591157773
30
0
11
1715.4711985855738
21
1372.6558591157773
31
0
0
LINE
5
221
100
AcDbEntity
8
0
100
AcDbLine
10
1714.3854322891866
20
1385.6558591157775
30
0
11
1714.3854322891866
21
1373.6558591376322
31
0
0
LINE
5
222
100
AcDbEntity
8
0
100
AcDbLine
10
1715.3854322891866
20
1372.6558591376324
30
0
11
1715.4711985855738
21
1372.6558591376327
31
0
0
LINE
5
223
100
AcDbEntity
8
0
100
AcDbLine
10
1715.3854322891866
20
1386.6558591157775
30
0
11
1748.8154322891869
21
1386.6558591157773
31
0
0
LINE
5
224
100
AcDbEntity
8
0
100
AcDbLine
10
1746.3471751480738
20
1372.6558591157773
30
0
11
1748.8154322891869
21
1372.6558591157773
31
0
0
LINE
5
225
100
AcDbEntity
8
0
100
AcDbLine
10
1749.8154322891874
20
1385.6558591157773
30
0
11
1749.8154322891869
21
1373.655859115777
31
0
0
LINE
5
226
100
AcDbEntity
8
0
100
AcDbLine
10
1746.3471751480738
20
1372.6558591157773
30
0
11
1746.3471751480738
21
1371.6558591157773
31
0
0
LINE
5
227
100
AcDbEntity
8
0
100
AcDbLine
10
1745.3471751480738
20
1370.6558591157764
30
0
11
1740.347175148074
21
1370.6558591157768
31
0
0
LINE
5
228
100
AcDbEntity
8
0
100
AcDbLine
10
1739.347175148074
20
1372.6558591157773
30
0
11
1739.347175148074
21
1371.6558591157773
31
0
0
CIRCLE
5
229
100
AcDbEntity
8
0
100
AcDbCircle
10
1906.8363205541605
20
1348.0758743745673
30
0
40
1.7499999999995453
210
0
220
0
230
1
0
CIRCLE
5
230
100
AcDbEntity
8
0
100
AcDbCircle
10
1727.0029292374295
20
1449.3358530122621
30
0
40
1.7500000000000002
210
0
220
0
230
1
0
CIRCLE
5
231
100
AcDbEntity
8
0
100
AcDbCircle
10
1996.7529872208272
20
1449.3358530122614
30
0
40
1.7499999999997728
210
0
220
0
230
1
0
CIRCLE
5
232
100
AcDbEntity
8
0
100
AcDbCircle
10
1816.9195959040962
20
1449.3358530122614
30
0
40
1.7500000000000002
210
0
220
0
230
1
0
CIRCLE
5
233
100
AcDbEntity
8
0
100
AcDbCircle
10
1906.8363205541605
20
1449.3358530122609
30
0
40
1.7499999999995453
210
0
220
0
230
1
0
CIRCLE
5
234
100
AcDbEntity
8
0
100
AcDbCircle
10
1816.9195959040962
20
1348.0758743745669
30
0
40
1.7500000000000002
210
0
220
0
230
1
0
CIRCLE
5
235
100
AcDbEntity
8
0
100
AcDbCircle
10
1727.0029292374295
20
1348.0758743745664
30
0
40
1.7499999999997728
210
0
220
0
230
1
0
CIRCLE
5
236
100
AcDbEntity
8
0
100
AcDbCircle
10
1996.7529872208272
20
1348.0758743745669
30
0
40
1.7499999999997728
210
0
220
0
230
1
0
ENDSEC
0
SECTION
2
OBJECTS
0
DICTIONARY
5
C
100
AcDbDictionary
3
ACAD_GROUP
350
D
3
ACAD_MLINESTYLE
350
17
0
DICTIONARY
5
D
100
AcDbDictionary
0
DICTIONARY
5
1A
330
C
100
AcDbDictionary
0
DICTIONARY
5
17
100
AcDbDictionary
0
ENDSEC
0
EOF
