0
SECTION
2
HEADER
9
$INSUNITS
70
4
9
$ACADVER
1
AC1014
9
$HANDSEED
5
FFFF
0
ENDSEC
0
SECTION
2
TABLES
0
TABLE
2
VPORT
5
8
100
AcDbSymbolTable
0
ENDTAB
0
TABLE
2
LTYPE
5
5
100
AcDbSymbolTable
0
LTYPE
5
14
100
AcDbSymbolTableRecord
100
AcDbLinetypeTableRecord
2
BYBLOCK
70
0
0
LTYPE
5
15
100
AcDbSymbolTableRecord
100
AcDbLinetypeTableRecord
2
BYLAYER
70
0
0
ENDTAB
0
TABLE
2
LAYER
5
2
100
AcDbSymbolTable
70
2
0
LAYER
5
50
100
AcDbSymbolTableRecord
100
AcDbLayerTableRecord
2
0
70
0
6
CONTINUOUS
0
ENDTAB
0
TABLE
2
STYLE
5
3
100
AcDbSymbolTable
70
1
0
STYLE
5
11
100
AcDbSymbolTableRecord
100
AcDbTextStyleTableRecord
2
STANDARD
70
0
0
ENDTAB
0
TABLE
2
VIEW
5
6
100
AcDbSymbolTable
70
0
0
ENDTAB
0
TABLE
2
UCS
5
7
100
AcDbSymbolTable
70
0
0
ENDTAB
0
TABLE
2
APPID
5
9
100
AcDbSymbolTable
70
2
0
APPID
5
12
100
AcDbSymbolTableRecord
100
AcDbRegAppTableRecord
2
ACAD
70
0
0
ENDTAB
0
TABLE
2
DIMSTYLE
5
A
100
AcDbSymbolTable
70
1
0
ENDTAB
0
TABLE
2
BLOCK_RECORD
5
1
100
AcDbSymbolTable
70
1
0
BLOCK_RECORD
5
1F
100
AcDbSymbolTableRecord
100
AcDbBlockTableRecord
2
*MODEL_SPACE
0
BLOCK_RECORD
5
1B
100
AcDbSymbolTableRecord
100
AcDbBlockTableRecord
2
*PAPER_SPACE
0
ENDTAB
0
ENDSEC
0
SECTION
2
BLOCKS
0
BLOCK
5
20
100
AcDbEntity
100
AcDbBlockBegin
2
*MODEL_SPACE
0
ENDBLK
5
21
100
AcDbEntity
100
AcDbBlockEnd
0
BLOCK
5
1C
100
AcDbEntity
100
AcDbBlockBegin
2
*PAPER_SPACE
0
ENDBLK
5
1D
100
AcDbEntity
100
AcDbBlockEnd
0
ENDSEC
0
SECTION
2
ENTITIES
0
LWPOLYLINE
5
100
100
AcDbEntity
8
0
100
AcDbPolyline
90
8
70
1
43
0.0
10
173.81249999999994
20
84.974999999999994
10
173.81250000000009
20
97.974999999999994
42
-0.41421356237312623
10
174.3125
20
98.474999999999966
10
175.3125
20
98.475000000000023
42
-0.4142135623730846
10
175.81250000000006
20
97.974999999999994
10
175.81250000000006
20
84.974999999999994
42
-0.4142135623730846
10
175.31249999999997
20
84.474999999999937
10
174.31249999999994
20
84.474999999999937
42
-0.41421356237311585
0
LWPOLYLINE
5
101
100
AcDbEntity
8
0
100
AcDbPolyline
90
8
70
1
43
0.0
10
153.88124999999999
20
60.374999999999979
42
-0.41421356237311585
10
154.38124999999997
20
59.874999999999972
10
154.38124999999997
20
46.874999999999964
42
-0.41421356237319906
10
153.88124999999999
20
46.374999999999957
10
152.88124999999997
20
46.374999999999957
42
-0.41421356237313667
10
152.38124999999997
20
46.874999999999964
10
152.38125000000002
20
59.875000000000043
42
-0.41421356237313667
10
152.88124999999997
20
60.374999999999979
0
LWPOLYLINE
5
102
100
AcDbEntity
8
0
100
AcDbPolyline
90
8
70
1
43
0.0
10
-81.862750000000062
20
27.325000000000017
10
-82.86275000000002
20
27.325000000000021
42
-0.41421356237317569
10
-83.36275000000002
20
27.825000000000024
10
-83.36275000000002
20
40.825000000000031
42
-0.41421356237307422
10
-82.86275000000002
20
41.325000000000003
10
-81.862750000000034
20
41.324999999999996
42
-0.4142135623730846
10
-81.362750000000034
20
40.825000000000031
10
-81.362750000000048
20
27.825000000000024
42
-0.41421356237313145
0
LWPOLYLINE
5
103
100
AcDbEntity
8
0
100
AcDbPolyline
90
8
70
1
43
0.0
10
-57.43675000000006
20
27.325000000000017
10
-58.436750000000004
20
27.325000000000045
42
-0.4142135623732095
10
-58.936750000000032
20
27.825000000000024
10
-58.936750000000053
20
40.825000000000031
42
-0.4142135623730534
10
-58.436750000000011
20
41.325000000000003
10
-57.43675000000006
20
41.324999999999996
42
-0.41421356237308982
10
-56.936750000000032
20
40.825000000000031
10
-56.936749999999996
20
27.824999999999989
42
-0.41421356237310542
0
LWPOLYLINE
5
104
100
AcDbEntity
8
0
100
AcDbPolyline
90
8
70
1
43
0.0
10
-35.736750000000079
20
40.825000000000031
42
-0.414213562373069
10
-35.236750000000008
20
41.325000000000003
10
-34.236750000000058
20
41.325000000000017
42
-0.41421356237316265
10
-33.736750000000022
20
40.825000000000031
10
-33.736750000000022
20
27.825000000000024
42
-0.41421356237314183
10
-34.236750000000036
20
27.325000000000017
10
-35.236750000000008
20
27.325000000000024
42
-0.41421356237323032
10
-35.736750000000022
20
27.825000000000024
0
LWPOLYLINE
5
105
100
AcDbEntity
8
0
100
AcDbPolyline
90
8
70
1
43
0.0
10
103.48724999999995
20
41.324999999999967
10
104.48724999999993
20
41.324999999999967
42
-0.41421356237319906
10
104.98724999999993
20
40.824999999999996
10
104.98724999999993
20
27.824999999999989
42
-0.41421356237313667
10
104.48724999999993
20
27.324999999999982
10
103.48724999999995
20
27.324999999999982
42
-0.41421356237326151
10
102.98724999999993
20
27.824999999999989
10
102.98724999999993
20
40.824999999999996
42
-0.41421356237311585
0
LWPOLYLINE
5
106
100
AcDbEntity
8
0
100
AcDbPolyline
90
8
70
1
43
0.0
10
127.68724999999996
20
27.324999999999982
10
126.68724999999995
20
27.324999999999982
42
-0.41421356237326151
10
126.18724999999995
20
27.824999999999989
10
126.18724999999995
20
40.824999999999996
42
-0.41421356237311585
10
126.68724999999995
20
41.324999999999967
10
127.68724999999996
20
41.324999999999967
42
-0.41421356237311585
10
128.18724999999998
20
40.824999999999996
10
128.18724999999998
20
27.824999999999989
42
-0.4142135623731783
0
LWPOLYLINE
5
107
100
AcDbEntity
8
0
100
AcDbPolyline
90
8
70
1
43
0.0
10
152.11324999999994
20
27.324999999999982
10
151.11324999999999
20
27.324999999999982
42
-0.41421356237326151
10
150.61324999999999
20
27.824999999999989
10
150.61324999999999
20
40.824999999999996
42
-0.41421356237311585
10
151.11324999999999
20
41.324999999999967
10
152.11324999999994
20
41.324999999999967
42
-0.41421356237311585
10
152.61324999999997
20
40.824999999999996
10
152.61324999999997
20
27.824999999999989
42
-0.4142135623731783
0
LWPOLYLINE
5
108
100
AcDbEntity
8
0
100
AcDbPolyline
90
8
70
1
43
0.0
10
171.38124999999999
20
79.924999999999983
10
171.3812499999998
20
64.924999999999955
42
-0.41421356237313667
10
170.8812499999998
20
64.424999999999955
10
165.13124999999999
20
64.425000000000026
42
-0.41421356237319906
10
164.63124999999997
20
64.924999999999997
10
164.63124999999997
20
79.924999999999983
42
-0.41421356237301177
10
165.13124999999999
20
80.424999999999983
10
170.88124999999997
20
80.424999999999983
42
-0.41421356237309503
0
LWPOLYLINE
5
109
100
AcDbEntity
8
0
100
AcDbPolyline
90
8
70
1
43
0.0
10
147.50624999999997
20
79.924999999999983
10
147.50624999999982
20
64.924999999999955
42
-0.41421356237319906
10
147.00624999999985
20
64.424999999999955
10
141.25624999999997
20
64.425000000000026
42
-0.41421356237319906
10
140.75624999999997
20
64.924999999999997
10
140.75624999999997
20
79.924999999999983
42
-0.41421356237301177
10
141.25624999999997
20
80.424999999999983
10
147.00624999999997
20
80.424999999999983
42
-0.41421356237309503
0
LWPOLYLINE
5
110
100
AcDbEntity
8
0
100
AcDbPolyline
90
8
70
1
43
0.0
10
-85.081750000000071
20
79.425000000000026
42
-0.41421356237311585
10
-84.581750000000099
20
78.925000000000011
10
-84.581750000000113
20
65.925000000000011
42
-0.41421356237315488
10
-85.081750000000085
20
65.425000000000011
10
-102.8442500000001
20
65.425000000000011
42
-0.41421356237303647
10
-103.34425000000005
20
65.925000000000011
10
-103.34425000000009
20
78.925000000000011
42
-0.41421356237309309
10
-102.84425000000007
20
79.425000000000026
0
LWPOLYLINE
5
111
100
AcDbEntity
8
0
100
AcDbPolyline
90
8
70
1
43
0.0
10
-87.462500000000048
20
41.324999999999989
42
-0.4142135623730846
10
-86.962500000000048
20
40.825000000000031
10
-86.962500000000034
20
27.825000000000024
42
-0.41421356237310025
10
-87.462500000000048
20
27.325000000000017
10
-100.46250000000008
20
27.32500000000001
42
-0.41421356237316137
10
-100.96250000000005
20
27.825000000000024
10
-100.96250000000006
20
40.825000000000031
42
-0.41421356237307422
10
-100.46250000000006
20
41.325000000000003
0
LWPOLYLINE
5
112
100
AcDbEntity
8
0
100
AcDbPolyline
90
8
70
1
43
0.0
10
117.32499999999999
20
117.52499999999998
10
104.32499999999997
20
117.52500000000001
42
0.41421356237310542
10
103.82499999999996
20
117.02499999999999
10
103.825
20
104.02500000000002
42
0.41421356237300139
10
104.32499999999997
20
103.52499999999999
10
117.32499999999999
20
103.52499999999995
42
0.41421356237311585
10
117.82499999999999
20
104.02500000000001
10
117.82499999999997
20
117.02499999999998
42
0.41421356237314705
0
LWPOLYLINE
5
113
100
AcDbEntity
8
0
100
AcDbPolyline
90
8
70
1
43
0.0
10
-54.125000000000028
20
103.52500000000001
10
-67.125000000000043
20
103.52500000000001
42
-0.41421356237310542
10
-67.625000000000043
20
104.02500000000003
10
-67.625000000000043
20
117.02500000000001
42
-0.41421356237308982
10
-67.125000000000043
20
117.52500000000001
10
-54.125000000000021
20
117.52500000000001
42
-0.41421356237311585
10
-53.62500000000005
20
117.02500000000001
10
-53.625000000000028
20
104.02500000000003
42
-0.41421356237310542
0
LWPOLYLINE
5
114
100
AcDbEntity
8
0
100
AcDbPolyline
90
8
70
1
43
0.0
10
-34.57500000000006
20
117.02499999999999
10
-34.575000000000067
20
104.02500000000002
42
-0.41421356237311585
10
-35.07500000000006
20
103.52499999999999
10
-48.07500000000006
20
103.52500000000001
42
-0.41421356237310542
10
-48.575000000000031
20
104.02500000000003
10
-48.575000000000031
20
117.02500000000001
42
-0.41421356237310542
10
-48.075000000000045
20
117.52500000000001
10
-35.07500000000006
20
117.52500000000001
42
-0.41421356237310542
0
LWPOLYLINE
5
115
100
AcDbEntity
8
0
100
AcDbPolyline
90
8
70
1
43
0.0
10
84.775000000000048
20
117.02499999999999
42
-0.41421356237310542
10
85.275000000000034
20
117.52499999999999
10
98.275000000000006
20
117.52500000000001
42
-0.4142135623730846
10
98.774999999999977
20
117.02499999999999
10
98.774999999999977
20
104.02500000000002
42
-0.41421356237300139
10
98.275000000000006
20
103.52499999999999
10
85.275000000000034
20
103.52500000000001
42
-0.41421356237313667
10
84.775000000000034
20
104.02500000000002
0
LWPOLYLINE
5
116
100
AcDbEntity
8
0
100
AcDbPolyline
90
8
70
1
43
0.0
10
-79.818750000000037
20
59.875000000000078
10
-79.818750000000051
20
46.875
42
-0.41421356237313406
10
-80.318750000000051
20
46.374999999999993
10
-93.318750000000051
20
46.374999999999993
42
-0.41421356237304169
10
-93.818750000000051
20
46.875
10
-93.818750000000051
20
59.875000000000078
42
-0.41421356237316659
10
-93.318750000000051
20
60.375000000000014
10
-80.318750000000051
20
60.37500000000005
42
-0.41421356237307683
0
LWPOLYLINE
5
117
100
AcDbEntity
8
0
100
AcDbPolyline
90
8
70
1
43
0.0
10
170.21249999999998
20
40.824999999999996
10
170.21249999999998
20
27.824999999999989
42
-0.41421356237311585
10
169.71249999999995
20
27.324999999999982
10
156.71249999999992
20
27.324999999999982
42
-0.4142135623731783
10
156.21249999999992
20
27.824999999999989
10
156.21249999999992
20
40.824999999999996
42
-0.41421356237311585
10
156.71249999999992
20
41.324999999999967
10
169.71249999999995
20
41.324999999999967
42
-0.4142135623730534
0
LWPOLYLINE
5
118
100
AcDbEntity
8
0
100
AcDbPolyline
90
8
70
1
43
0.0
10
-77.150000000000048
20
27.825000000000024
10
-77.150000000000091
20
40.825000000000031
42
-0.41421356237305079
10
-76.650000000000048
20
41.325000000000003
10
-63.650000000000048
20
41.324999999999974
42
-0.41421356237304302
10
-63.150000000000048
20
40.825000000000031
10
-63.15000000000002
20
27.825000000000024
42
-0.41421356237311063
10
-63.650000000000055
20
27.325000000000017
10
-76.650000000000048
20
27.32500000000001
42
-0.41421356237316787
0
LWPOLYLINE
5
119
100
AcDbEntity
8
0
100
AcDbPolyline
90
8
70
1
43
0.0
10
148.28124999999997
20
46.374999999999957
10
135.28125
20
46.374999999999957
42
-0.41421356237307422
10
134.78124999999994
20
46.874999999999964
10
134.78125
20
59.875000000000043
42
-0.41421356237313667
10
135.28125
20
60.374999999999979
10
148.28124999999997
20
60.37500000000005
42
-0.41421356237307422
10
148.78125
20
59.875000000000043
10
148.78125
20
46.874999999999964
42
-0.41421356237307422
0
LWPOLYLINE
5
120
100
AcDbEntity
8
0
100
AcDbPolyline
90
8
70
1
43
0.0
10
174.97499999999999
20
59.875000000000043
10
174.97499999999999
20
46.874999999999964
42
-0.41421356237313667
10
174.47499999999997
20
46.374999999999957
10
161.47499999999997
20
46.374999999999957
42
-0.41421356237313667
10
160.97499999999997
20
46.874999999999964
10
160.97499999999997
20
59.875000000000043
42
-0.41421356237301177
10
161.47499999999997
20
60.374999999999979
10
174.47499999999997
20
60.374999999999979
42
-0.41421356237313667
0
LWPOLYLINE
5
121
100
AcDbEntity
8
0
100
AcDbPolyline
90
8
70
1
43
0.0
10
-53.337500000000048
20
27.825000000000024
42
0.41421356237309503
10
-52.837500000000041
20
27.325000000000017
10
-39.837500000000063
20
27.325000000000035
42
0.41421356237311063
10
-39.337500000000041
20
27.825000000000024
10
-39.337500000000027
20
40.825000000000031
42
0.41421356237304818
10
-39.837500000000063
20
41.325000000000003
10
-52.837500000000041
20
41.324999999999974
42
0.41421356237308982
10
-53.337500000000048
20
40.825000000000031
0
LWPOLYLINE
5
122
100
AcDbEntity
8
0
100
AcDbPolyline
90
8
70
1
43
0.0
10
149.06874999999997
20
65.924999999999983
42
0.41421356237313667
10
149.56874999999997
20
65.424999999999969
10
162.56874999999997
20
65.424999999999969
42
0.41421356237313667
10
163.06874999999997
20
65.924999999999983
10
163.06874999999997
20
78.924999999999983
42
0.41421356237310542
10
162.56874999999997
20
79.424999999999983
10
149.56874999999997
20
79.424999999999983
42
0.41421356237313667
10
149.06874999999997
20
78.924999999999983
0
LWPOLYLINE
5
123
100
AcDbEntity
8
0
100
AcDbPolyline
90
8
70
1
43
0.0
10
47.950660274273588
20
37.324999999999982
10
81.950660274273588
20
37.325000000000017
42
-0.4142135623730222
10
82.950660274273602
20
36.324999999999967
10
82.950660274273602
20
32.324999999999982
42
-0.41421356237307422
10
81.950660274273588
20
31.324999999999967
10
47.950660274273588
20
31.32499999999995
42
-0.414213562373069
10
46.950660274273574
20
32.324999999999982
10
46.950660274273588
20
36.324999999999967
42
-0.414213562373069
0
LWPOLYLINE
5
124
100
AcDbEntity
8
0
100
AcDbPolyline
90
8
70
1
43
0.0
10
21.298660274273615
20
31.325000000000003
10
-12.701339725726406
20
31.324999999999985
42
-0.4142135623730846
10
-13.701339725726402
20
32.325000000000017
10
-13.701339725726385
20
36.325000000000003
42
-0.4142135623730846
10
-12.701339725726406
20
37.325000000000017
10
21.298660274273615
20
37.325000000000031
42
-0.4142135623730846
10
22.298660274273612
20
36.325000000000003
10
22.298660274273594
20
32.325000000000017
42
-0.4142135623730846
0
LWPOLYLINE
5
125
100
AcDbEntity
8
0
100
AcDbPolyline
90
8
70
1
43
0.0
10
94.649999999999892
20
28.324999999999996
10
88.899999999999864
20
28.324999999999996
42
-0.41421356237326151
10
88.399999999999892
20
28.824999999999967
10
88.399999999999892
20
41.824999999999974
42
-0.41421356237307422
10
88.899999999999864
20
42.324999999999982
10
94.649999999999892
20
42.324999999999946
42
-0.41421356237313667
10
95.149999999999864
20
41.824999999999974
10
95.149999999999977
20
28.824999999999967
42
-0.41421356237315748
0
LWPOLYLINE
5
126
100
AcDbEntity
8
0
100
AcDbPolyline
90
8
70
1
43
0.0
10
-19.650000000000123
20
42.325000000000031
42
-0.41421356237309503
10
-19.150000000000169
20
41.82500000000001
10
-19.15000000000008
20
28.825000000000003
42
-0.41421356237316787
10
-19.650000000000105
20
28.325000000000031
10
-25.400000000000151
20
28.325000000000031
42
-0.41421356237312623
10
-25.900000000000105
20
28.825000000000003
10
-25.900000000000123
20
41.82500000000001
42
-0.4142135623730534
10
-25.400000000000116
20
42.325000000000017
0
LWPOLYLINE
5
127
100
AcDbEntity
8
0
100
AcDbPolyline
90
8
70
1
43
0.0
10
-77.756250000000051
20
59.375
10
-72.006250000000037
20
59.375000000000007
42
-0.41421356237304302
10
-71.506250000000037
20
58.875000000000064
10
-71.506250000000023
20
45.875000000000021
42
-0.41421356237313928
10
-72.006250000000037
20
45.375000000000014
10
-77.756250000000037
20
45.375000000000028
42
-0.41421356237313667
10
-78.256250000000023
20
45.875000000000021
10
-78.256250000000051
20
58.875000000000064
42
-0.41421356237304818
0
LWPOLYLINE
5
128
100
AcDbEntity
8
0
100
AcDbPolyline
90
8
70
1
43
0.0
10
-102.13125000000004
20
45.875000000000021
10
-102.13125000000007
20
58.875000000000064
42
-0.41421356237313728
10
-101.63125000000007
20
59.375
10
-95.881250000000051
20
59.374999999999993
42
-0.41421356237300916
10
-95.381250000000051
20
58.875000000000064
10
-95.381250000000051
20
45.875000000000021
42
-0.41421356237313017
10
-95.881250000000051
20
45.375000000000014
10
-101.63125000000007
20
45.375000000000014
42
-0.41421356237315748
0
LWPOLYLINE
5
129
100
AcDbEntity
8
0
100
AcDbPolyline
90
20
70
1
43
0.0
10
174.97500000000014
20
104.02500000000012
10
174.97500000000014
20
117.02500000000006
42
0.4142135623731783
10
174.47500000000005
20
117.52500000000006
10
142.42500000000007
20
117.52500000000006
42
0.41421356237294937
10
141.9250000000001
20
117.02500000000006
10
141.92500000000007
20
104.02500000000012
42
0.41421356237309503
10
142.42500000000007
20
103.52500000000006
10
143.13700000000009
20
103.52500000000006
10
143.13700000000009
20
103.02500000000006
42
0.41421356237312623
10
143.63700000000009
20
102.52500000000006
10
149.38700000000006
20
102.52500000000006
42
0.41421356237295975
10
149.88700000000006
20
103.02500000000006
10
149.88700000000006
20
103.52500000000006
10
167.01300000000003
20
103.52500000000006
10
167.01300000000003
20
103.02500000000006
42
0.41421356237321988
10
167.51300000000009
20
102.52500000000006
10
173.26300000000006
20
102.52500000000011
42
0.41421356237295975
10
173.76300000000009
20
103.02500000000006
10
173.76300000000009
20
103.52500000000006
10
174.47500000000008
20
103.52500000000006
42
0.41421356237312623
0
LINE
5
130
100
AcDbEntity
8
0
100
AcDbLine
10
-107.72507076299959
20
117.52487132899992
30
0
11
-107.72507076299961
21
27.324856064000116
31
0
0
SPLINE
5
131
100
AcDbEntity
8
0
100
AcDbSpline
70
0
71
3
72
8
73
4
74
0
42
0.000000001
43
0.0000000001
44
0.0000000001
40
-1
40
-1
40
-1
40
-1
40
-0
40
-0
40
-0
40
-0
10
-105.72507077299989
20
119.52487132299999
30
0
10
-106.77226831886273
20
119.52487131776415
30
0
10
-107.72507075985814
20
118.57206887486302
30
0
10
-107.72507076299959
20
117.52487132899992
30
0
0
LINE
5
132
100
AcDbEntity
8
0
100
AcDbLine
10
-105.7250707920001
20
25.32485606399991
30
0
11
174.974987231
21
25.324856063999874
31
0
0
SPLINE
5
133
100
AcDbEntity
8
0
100
AcDbSpline
70
0
71
3
72
8
73
4
74
0
42
0.000000001
43
0.0000000001
44
0.0000000001
40
-1
40
-1
40
-1
40
-1
40
-0
40
-0
40
-0
40
-0
10
-107.72507076299961
20
27.324856064000116
30
0
10
-107.72507076299961
20
26.277658522469878
30
0
10
-106.77226833353005
20
25.324856079183959
30
0
10
-105.7250707920001
20
25.32485606399991
30
0
0
SPLINE
5
134
100
AcDbEntity
8
0
100
AcDbSpline
70
0
71
3
72
8
73
4
74
0
42
0.000000001
43
0.0000000001
44
0.0000000001
40
-1
40
-1
40
-1
40
-1
40
-0
40
-0
40
-0
40
-0
10
174.974987231
20
25.324856063999874
30
0
10
176.02218477686318
20
25.324856069236006
30
0
10
176.97498721785797
20
26.277658512137094
30
0
10
176.97498722099999
20
27.324856057999973
30
0
0
LWPOLYLINE
5
135
100
AcDbEntity
8
0
100
AcDbPolyline
90
8
70
1
43
0.0
10
60.174999999999983
20
117.52499999999999
10
47.174999999999976
20
117.52499999999999
42
0.41421356237307422
10
46.674999999999969
20
117.02499999999999
10
46.674999999999969
20
104.02500000000002
42
0.41421356237306384
10
47.174999999999976
20
103.52499999999999
10
60.174999999999983
20
103.52500000000001
42
0.41421356237313667
10
60.67499999999999
20
104.02500000000002
10
60.674999999999969
20
117.02499999999999
42
0.41421356237310542
0
LWPOLYLINE
5
136
100
AcDbEntity
8
0
100
AcDbPolyline
90
8
70
1
43
0.0
10
22.574999999999932
20
104.02500000000002
42
-0.41421356237311585
10
22.074999999999942
20
103.52499999999999
10
9.0749999999999709
20
103.52500000000001
42
-0.41421356237314705
10
8.5749999999999815
20
104.02500000000002
10
8.5749999999999815
20
117.02499999999999
42
-0.41421356237312623
10
9.0749999999999709
20
117.52499999999999
10
22.074999999999942
20
117.52499999999999
42
-0.41421356237309503
10
22.57499999999995
20
117.02499999999999
0
LWPOLYLINE
5
137
100
AcDbEntity
8
0
100
AcDbPolyline
90
8
70
1
43
0.0
10
-29.025000000000063
20
103.52499999999999
10
-16.025000000000045
20
103.52499999999999
42
0.41421356237309503
10
-15.52500000000002
20
104.02500000000002
10
-15.525000000000002
20
117.02499999999999
42
0.41421356237311585
10
-16.025000000000045
20
117.52499999999999
10
-29.025000000000063
20
117.52499999999999
42
0.41421356237308982
10
-29.525000000000059
20
117.02499999999999
10
-29.525000000000048
20
104.02500000000002
42
0.41421356237309503
0
LWPOLYLINE
5
138
100
AcDbEntity
8
0
100
AcDbPolyline
90
8
70
1
43
0.0
10
-105.22500000000007
20
103.52500000000001
42
-0.41421356237310902
10
-105.72500000000005
20
104.02500000000003
10
-105.72500000000007
20
117.02500000000001
42
-0.41421356237308266
10
-105.22500000000005
20
117.52500000000001
10
-92.225000000000051
20
117.52500000000001
42
-0.4142135623730937
10
-91.725000000000051
20
117.02500000000001
10
-91.725000000000051
20
104.02500000000003
42
-0.41421356237309892
10
-92.225000000000037
20
103.52500000000001
0
LWPOLYLINE
5
139
100
AcDbEntity
8
0
100
AcDbPolyline
90
8
70
1
43
0.0
10
-9.9750000000000405
20
117.52499999999999
42
0.41421356237312623
10
-10.47500000000003
20
117.02499999999999
10
-10.475000000000012
20
104.02500000000002
42
0.41421356237316787
10
-9.9750000000000405
20
103.52500000000003
10
3.0249999999999666
20
103.52499999999998
42
0.41421356237311585
10
3.5249999999999737
20
104.02500000000002
10
3.5249999999999737
20
117.02499999999999
42
0.41421356237309503
10
3.0249999999999666
20
117.52499999999999
0
LWPOLYLINE
5
140
100
AcDbEntity
8
0
100
AcDbPolyline
90
8
70
1
43
0.0
10
136.37500000000003
20
103.52499999999998
10
123.37499999999999
20
103.52499999999999
42
-0.41421356237313667
10
122.87499999999997
20
104.02500000000001
10
122.875
20
117.02499999999998
42
-0.41421356237310542
10
123.37499999999999
20
117.52499999999998
10
136.37500000000003
20
117.52499999999999
42
-0.4142135623730846
10
136.875
20
117.02499999999998
10
136.87499999999997
20
104.02500000000001
42
-0.41421356237306384
0
LWPOLYLINE
5
141
100
AcDbEntity
8
0
100
AcDbPolyline
90
8
70
1
43
0.0
10
-100.46250000000006
20
84.47499999999998
42
-0.4142135623730846
10
-100.96250000000005
20
84.975000000000023
10
-100.96250000000003
20
97.975000000000023
42
-0.4142135623730846
10
-100.46250000000003
20
98.474999999999994
10
-87.462500000000048
20
98.475000000000037
42
-0.41421356237309243
10
-86.962500000000048
20
97.975000000000023
10
-86.962500000000048
20
84.975000000000023
42
-0.41421356237308982
10
-87.462500000000034
20
84.47499999999998
0
LWPOLYLINE
5
142
100
AcDbEntity
8
0
100
AcDbPolyline
90
8
70
1
43
0.0
10
132.39999999999995
20
40.824999999999996
10
132.39999999999995
20
27.824999999999989
42
0.41421356237311585
10
132.89999999999998
20
27.324999999999982
10
145.90000000000001
20
27.324999999999982
42
0.41421356237311585
10
146.39999999999998
20
27.824999999999989
10
146.39999999999998
20
40.824999999999996
42
0.41421356237309503
10
145.90000000000001
20
41.324999999999967
10
132.89999999999998
20
41.324999999999967
42
0.4142135623730534
0
LWPOLYLINE
5
143
100
AcDbEntity
8
0
100
AcDbPolyline
90
8
70
1
43
0.0
10
170.21249999999998
20
84.974999999999994
10
170.21250000000003
20
97.974999999999994
42
0.41421356237307422
10
169.71249999999998
20
98.474999999999994
10
156.71249999999992
20
98.474999999999952
42
0.41421356237304302
10
156.21249999999998
20
97.974999999999994
10
156.21249999999995
20
84.974999999999994
42
0.41421356237312623
10
156.71249999999992
20
84.474999999999937
10
169.71249999999992
20
84.474999999999966
42
0.4142135623730846
0
LWPOLYLINE
5
144
100
AcDbEntity
8
0
100
AcDbPolyline
90
8
70
1
43
0.0
10
41.624999999999957
20
117.02499999999999
42
0.41421356237309503
10
41.124999999999957
20
117.52499999999999
10
28.124999999999964
20
117.52499999999999
42
0.41421356237307422
10
27.624999999999957
20
117.02499999999999
10
27.624999999999957
20
104.02500000000002
42
0.41421356237306384
10
28.124999999999964
20
103.52499999999999
10
41.124999999999957
20
103.52499999999998
42
0.41421356237311585
10
41.624999999999957
20
104.02500000000002
0
LWPOLYLINE
5
145
100
AcDbEntity
8
0
100
AcDbPolyline
90
8
70
1
43
0.0
10
41.624999999999979
20
40.824999999999996
42
0.4142135623730846
10
41.124999999999957
20
41.324999999999967
10
28.124999999999964
20
41.325000000000003
42
0.41421356237307422
10
27.624999999999957
20
40.825000000000031
10
27.624999999999957
20
27.825000000000024
42
0.41421356237309503
10
28.124999999999964
20
27.325000000000017
10
41.124999999999957
20
27.324999999999999
42
0.41421356237314705
10
41.624999999999957
20
27.824999999999989
0
LWPOLYLINE
5
146
100
AcDbEntity
8
0
100
AcDbPolyline
90
8
70
1
43
0.0
10
-106.06250000000004
20
84.47499999999998
42
-0.41421356237308754
10
-106.56250000000006
20
84.975000000000023
10
-106.56250000000001
20
97.975000000000023
42
-0.41421356237309664
10
-106.06250000000004
20
98.474999999999994
10
-105.06250000000003
20
98.475000000000037
42
-0.41421356237310025
10
-104.56250000000004
20
97.975000000000023
10
-104.56250000000003
20
84.975000000000023
42
-0.41421356237307749
10
-105.06250000000006
20
84.47499999999998
0
LWPOLYLINE
5
147
100
AcDbEntity
8
0
100
AcDbPolyline
90
8
70
1
43
0.0
10
-73.17500000000004
20
103.52500000000001
42
0.41421356237310542
10
-72.67500000000004
20
104.02500000000003
10
-72.67500000000004
20
117.02500000000001
42
0.41421356237309243
10
-73.17500000000004
20
117.52500000000001
10
-86.17500000000004
20
117.52500000000001
42
0.41421356237309503
10
-86.67500000000004
20
117.02500000000001
10
-86.67500000000004
20
104.02500000000003
42
0.41421356237309764
10
-86.175000000000054
20
103.52500000000001
0
LWPOLYLINE
5
148
100
AcDbEntity
8
0
100
AcDbPolyline
90
8
70
1
43
0.0
10
108.58749999999998
20
40.824999999999996
10
108.58749999999998
20
27.824999999999989
42
0.41421356237311585
10
109.08749999999995
20
27.324999999999982
10
122.08749999999995
20
27.324999999999982
42
0.41421356237311585
10
122.58749999999999
20
27.824999999999989
10
122.58749999999999
20
40.824999999999996
42
0.4142135623730534
10
122.08749999999995
20
41.324999999999967
10
109.08749999999995
20
41.324999999999967
42
0.41421356237309503
0
LWPOLYLINE
5
149
100
AcDbEntity
8
0
100
AcDbPolyline
90
8
70
1
43
0.0
10
79.724999999999966
20
104.02500000000002
10
79.724999999999952
20
117.02499999999999
42
0.41421356237314705
10
79.224999999999966
20
117.52499999999999
10
66.225000000000023
20
117.52500000000001
42
0.41421356237310542
10
65.725000000000023
20
117.02499999999999
10
65.725000000000051
20
104.02500000000002
42
0.41421356237300139
10
66.225000000000023
20
103.52499999999999
10
79.224999999999966
20
103.52499999999998
42
0.41421356237311585
0
LWPOLYLINE
5
150
100
AcDbEntity
8
0
100
AcDbPolyline
90
20
70
1
43
0.0
10
-67.746599999999944
20
62.900000000000063
10
-82.087500000000077
20
62.900000000000006
42
-0.41421356237310542
10
-82.587500000000077
20
63.40000000000007
10
-82.587499999999949
20
100.5
42
-0.41421356237311324
10
-82.087499999999835
20
101.00000000000003
10
149.98750000000013
20
100.99999999999994
42
-0.41421356237313667
10
150.48750000000013
20
100.49999999999994
10
150.48750000000007
20
82.944999999999936
42
-0.41421356237314705
10
149.98750000000007
20
82.444999999999936
10
136.74660000000003
20
82.444999999999936
42
0.41421356237304302
10
136.24660000000003
20
81.944999999999936
10
136.2466000000002
20
63.399999999999963
42
-0.4142135623730534
10
135.7466000000002
20
62.899999999999956
10
129.55625000000015
20
62.899999999999956
42
0.41421356237299095
10
129.0562500000002
20
62.399999999999984
10
129.05625000000032
20
44.850000000000136
42
-0.4142135623731783
10
128.55625000000029
20
44.350000000000129
10
-66.746599999999901
20
44.350000000000016
42
-0.41421356237313667
10
-67.246599999999916
20
44.849999999999959
10
-67.246599999999916
20
62.400000000000091
42
0.4142135623730846
0
LINE
5
151
100
AcDbEntity
8
0
100
AcDbLine
10
176.97498722099999
20
27.324856057999973
30
0
11
176.97498722100005
21
117.52487132500011
31
0
0
LINE
5
152
100
AcDbEntity
8
0
100
AcDbLine
10
174.97498725000008
20
119.52487132299994
30
0
11
-105.72507077299989
21
119.52487132299999
31
0
0
SPLINE
5
153
100
AcDbEntity
8
0
100
AcDbSpline
70
0
71
3
72
8
73
4
74
0
42
0.000000001
43
0.0000000001
44
0.0000000001
40
-1
40
-1
40
-1
40
-1
40
-0
40
-0
40
-0
40
-0
10
176.97498722100005
20
117.52487132500011
30
0
10
176.97498721995311
20
118.57206886586299
30
0
10
176.02218479086287
20
119.52487130781593
30
0
10
174.97498725000008
20
119.52487132299994
30
0
0
ENDSEC
0
SECTION
2
OBJECTS
0
DICTIONARY
5
C
100
AcDbDictionary
3
ACAD_GROUP
350
D
3
ACAD_MLINESTYLE
350
17
0
DICTIONARY
5
D
100
AcDbDictionary
0
DICTIONARY
5
1A
330
C
100
AcDbDictionary
0
DICTIONARY
5
17
100
AcDbDictionary
0
ENDSEC
0
EOF
